<?xml version="1.0" encoding="UTF-8" standalone="no"?>
<!-- Created with Inkscape (http://www.inkscape.org/) -->

<svg
   xmlns:dc="http://purl.org/dc/elements/1.1/"
   xmlns:cc="http://creativecommons.org/ns#"
   xmlns:rdf="http://www.w3.org/1999/02/22-rdf-syntax-ns#"
   xmlns:svg="http://www.w3.org/2000/svg"
   xmlns="http://www.w3.org/2000/svg"
   xmlns:sodipodi="http://sodipodi.sourceforge.net/DTD/sodipodi-0.dtd"
   xmlns:inkscape="http://www.inkscape.org/namespaces/inkscape"
   width="64.999001mm"
   height="11.678638mm"
   viewBox="0 0 64.999001 11.678638"
   version="1.1"
   id="svg8"
   inkscape:version="0.92.4 (5da689c313, 2019-01-14)"
   sodipodi:docname="logo.svg">
  <defs
     id="defs2" />
  <sodipodi:namedview
     id="base"
     pagecolor="#ffffff"
     bordercolor="#666666"
     borderopacity="1.0"
     inkscape:pageopacity="0.0"
     inkscape:pageshadow="2"
     inkscape:zoom="3.959798"
     inkscape:cx="127.69871"
     inkscape:cy="12.802413"
     inkscape:document-units="mm"
     inkscape:current-layer="g826"
     showgrid="false"
     inkscape:window-width="1920"
     inkscape:window-height="1017"
     inkscape:window-x="2992"
     inkscape:window-y="833"
     inkscape:window-maximized="1"
     fit-margin-top="0"
     fit-margin-left="0"
     fit-margin-right="0"
     fit-margin-bottom="0" />
  <metadata
     id="metadata5">
    <rdf:RDF>
      <cc:Work
         rdf:about="">
        <dc:format>image/svg+xml</dc:format>
        <dc:type
           rdf:resource="http://purl.org/dc/dcmitype/StillImage" />
        <dc:title></dc:title>
      </cc:Work>
    </rdf:RDF>
  </metadata>
  <g
     inkscape:label="Ebene 1"
     inkscape:groupmode="layer"
     id="layer1"
     transform="translate(-48.656441,-122.45464)">
    <g
       id="g826"
       transform="translate(-7.3705357,-0.09449375)">
      <path
         style="fill:#e7e8e7;stroke-width:0.08466666"
         d="m 56.908101,134.46078 c -0.419769,-0.15001 -0.77658,-0.46637 -0.965,-0.85559 -0.170676,-0.35257 -0.178,-0.4918 -0.178,-3.38346 0,-1.92492 0.03257,-3.10197 0.09005,-3.2541 0.128028,-0.33886 0.489428,-0.69966 0.883614,-0.88216 0.310616,-0.14381 0.601638,-0.1568 3.513666,-0.1568 3.506077,0 3.567223,0.008 4.07978,0.5571 0.362457,0.38806 0.407553,0.62678 0.407553,2.1574 0,1.61212 -0.07696,1.90164 -0.613051,2.30623 -0.467699,0.35297 -0.810263,0.39324 -3.348984,0.39374 l -2.395701,4.8e-4 0.02504,0.5715 0.02504,0.5715 2.955999,0.0223 c 2.009447,0.0152 2.992237,0.0524 3.069167,0.11621 0.172603,0.14324 0.132569,0.66901 -0.07945,1.04333 -0.104403,0.18433 -0.354641,0.45103 -0.556084,0.59266 l -0.366259,0.25753 -3.146689,0.0165 c -2.065936,0.0108 -3.233927,-0.0147 -3.400689,-0.0743 z m 5.494275,-5.19842 c 0.06656,-0.17345 0.06656,-0.99804 0,-1.17149 -0.04484,-0.11684 -0.304049,-0.13392 -2.032,-0.13392 h -1.980608 v 0.71967 0.71966 h 1.980608 c 1.727951,0 1.987164,-0.0171 2.032,-0.13392 z m 4.792725,5.2157 c -0.109582,-0.0693 -0.127,-0.56554 -0.127,-3.61821 0,-1.94584 0.02987,-3.64493 0.06637,-3.77574 0.100638,-0.36064 0.709557,-0.97395 1.065008,-1.07268 0.191098,-0.0531 2.180437,-0.0857 5.242509,-0.086 4.263097,-4e-4 4.977228,0.0174 5.248177,0.13057 0.399168,0.16678 0.670829,0.42092 0.874509,0.81809 0.150865,0.29418 0.161094,0.54175 0.161094,3.8989 0,2.67526 -0.02578,3.61055 -0.1016,3.68637 -0.145052,0.14505 -2.233409,0.14125 -2.32757,-0.004 -0.03767,-0.0582 -0.08755,-1.53459 -0.11083,-3.28084 l -0.04233,-3.175 -1.248834,-0.0234 -1.248833,-0.0234 v 3.20267 c 0,2.37807 -0.02616,3.22882 -0.1016,3.30426 -0.115467,0.11547 -2.071674,0.14371 -2.246865,0.0324 -0.07962,-0.0506 -0.110133,-0.83841 -0.127,-3.27953 l -0.0222,-3.21298 -1.221178,-0.0236 c -0.920177,-0.0178 -1.23811,0.003 -1.289871,0.0847 -0.03778,0.0595 -0.06928,1.5234 -0.06999,3.25302 -0.0012,2.78875 -0.01646,3.15059 -0.135222,3.19617 -0.215964,0.0829 -2.097767,0.0564 -2.236741,-0.0315 z m 15.97023,-0.0395 c -0.43164,-0.15645 -0.864986,-0.58571 -1.03154,-1.02183 -0.10701,-0.2802 -0.128583,-0.62454 -0.106881,-1.70597 0.02683,-1.33701 0.03055,-1.36031 0.28119,-1.76351 0.462931,-0.74471 0.52616,-0.75877 3.538622,-0.78725 l 2.60729,-0.0246 -0.02496,-0.56802 -0.02496,-0.56802 -2.818332,-0.0423 c -3.068008,-0.0461 -2.977279,-0.0299 -2.980038,-0.53254 -0.0028,-0.51148 0.465164,-1.13062 1.034306,-1.36842 0.432975,-0.18091 5.927636,-0.19559 6.354284,-0.017 0.334638,0.14009 0.879949,0.72997 0.968798,1.04797 0.03611,0.12923 0.06565,1.60985 0.06565,3.29025 v 3.05529 l -0.233997,0.33761 c -0.128698,0.18569 -0.395398,0.43006 -0.592667,0.54305 l -0.35867,0.20544 -3.174999,0.0194 c -2.551794,0.0156 -3.239402,-0.004 -3.503103,-0.0995 z m 5.238769,-2.67158 v -0.71967 l -1.735666,-0.0248 c -0.954617,-0.0136 -1.859492,-0.002 -2.010834,0.025 l -0.275166,0.0498 v 0.65938 c 0,0.36267 0.02608,0.68548 0.05797,0.71736 0.03188,0.0319 0.936757,0.0478 2.010833,0.0353 l 1.952867,-0.0227 z m 6.192288,2.67267 c -0.372902,-0.13601 -0.766039,-0.48086 -0.97168,-0.85234 -0.125399,-0.22652 -0.143322,-0.76285 -0.1657,-4.95833 -0.01659,-3.11111 0.0047,-4.78273 0.06293,-4.93583 0.07104,-0.18684 0.294053,-0.32874 1.155974,-0.7355 0.587376,-0.2772 1.120246,-0.504 1.184155,-0.504 0.09391,0 0.120595,0.32891 0.139118,1.7145 l 0.02292,1.7145 1.350471,0.0234 c 1.682695,0.0292 1.655196,0.0124 1.655196,1.01128 0,1.0853 0.0663,1.03965 -1.510046,1.03965 -0.925253,0 -1.365925,0.0312 -1.436354,0.1016 -0.111052,0.11105 -0.134859,3.21837 -0.03068,4.00473 l 0.05608,0.42334 1.421449,0.0423 c 1.590035,0.0473 1.619505,0.0593 1.551532,0.62787 -0.0521,0.43583 -0.434093,0.96441 -0.856315,1.18492 -0.300471,0.15693 -0.50577,0.17915 -1.820333,0.19702 -1.105225,0.015 -1.564758,-0.0102 -1.808712,-0.0991 z m 6.594992,-0.0151 c -0.12201,-0.12202 -0.13387,-0.51465 -0.11188,-3.70417 0.0236,-3.42847 0.0315,-3.5809 0.20147,-3.90635 0.0973,-0.18627 0.33856,-0.45297 0.53617,-0.59267 l 0.35929,-0.254 1.7075,-0.0272 c 1.09041,-0.0174 1.82276,0.007 2.02641,0.0673 0.40074,0.1188 0.89877,0.55032 1.04837,0.90836 0.14351,0.34346 0.14808,0.84008 0.009,0.93038 -0.0582,0.0377 -0.82974,0.0876 -1.7145,0.11083 l -1.60867,0.0423 -0.0222,3.21298 c -0.0169,2.44112 -0.0474,3.22896 -0.127,3.27953 -0.0576,0.0366 -0.5688,0.0671 -1.13592,0.0679 -0.83671,0.001 -1.05685,-0.0244 -1.1676,-0.13518 z m 7.34222,0.0804 c -0.15055,-0.0608 -0.15468,-8.32788 -0.004,-8.47833 0.0679,-0.068 0.44484,-0.1016 1.1382,-0.1016 0.97521,0 1.0444,0.0111 1.1684,0.18817 0.1148,0.16391 0.1318,0.70757 0.1318,4.2164 0,3.02018 -0.0254,4.05365 -0.1016,4.12983 -0.10104,0.10104 -2.09839,0.14002 -2.33257,0.0455 z m 5.97019,-0.0282 c -0.48145,-0.14497 -0.81747,-0.4303 -1.03831,-0.88169 l -0.21979,-0.44923 0.0252,-3.05292 0.0252,-3.05292 0.254,-0.36047 c 0.1397,-0.19826 0.42192,-0.44912 0.62715,-0.55747 0.3679,-0.19423 0.41092,-0.197 3.05585,-0.197 2.64493,0 2.68795,0.003 3.05585,0.197 0.6517,0.34406 1.09487,1.23427 0.80813,1.62333 -0.11877,0.16116 -0.24886,0.17138 -2.69289,0.21167 l -2.56809,0.0423 v 2.24367 2.24367 l 2.64467,0.0224 2.64467,0.0224 0.13331,0.20346 c 0.31085,0.47442 -0.35915,1.5242 -1.10493,1.73124 -0.39679,0.11016 -5.28891,0.11932 -5.65003,0.0106 z m -49.933356,-9.39837 c -0.152053,-0.15205 -0.169333,-0.28222 -0.169333,-1.27556 0,-0.60843 0.03944,-1.17993 0.08765,-1.27 0.08064,-0.15067 0.188598,-0.16377 1.349866,-0.16377 1.593631,0 1.525822,-0.0648 1.525822,1.45817 0,1.45927 0.04044,1.4205 -1.481667,1.4205 -1.030111,0 -1.159724,-0.0167 -1.312333,-0.16934 z"
         id="path840"
         inkscape:connector-curvature="0" />
      <path
         style="fill:#d7d9d7;stroke-width:0.08466666"
         d="m 56.919722,134.3543 c -0.429643,-0.15584 -0.78172,-0.50228 -0.944709,-0.92958 -0.1122,-0.29416 -0.128134,-0.79891 -0.107336,-3.40015 l 0.02442,-3.05472 0.244171,-0.32 c 0.47816,-0.62665 0.539941,-0.63628 4.097715,-0.63837 3.33127,-0.002 3.512284,0.0166 3.940191,0.40353 0.41066,0.37137 0.480923,0.68932 0.480923,2.17629 0,0.9869 -0.03393,1.48429 -0.114388,1.67686 -0.151199,0.36187 -0.649514,0.79052 -1.047465,0.90103 -0.188837,0.0524 -1.316701,0.089 -2.753981,0.0893 l -2.434166,4.7e-4 v 0.62594 c 0,0.49267 0.02851,0.63688 0.133925,0.67733 0.07366,0.0283 1.418588,0.0514 2.988733,0.0514 2.107518,0 2.881404,0.0266 2.956408,0.1016 0.297738,0.29773 -0.07304,1.14947 -0.647365,1.48709 l -0.394035,0.23164 -3.048,0.0195 c -2.43954,0.0156 -3.113286,-0.004 -3.375045,-0.0991 z m 5.531067,-5.03712 c 0.122294,-0.22851 0.109707,-1.12836 -0.01823,-1.30333 -0.09555,-0.13067 -0.299933,-0.14257 -2.0955,-0.12201 l -1.989624,0.0228 -0.02434,0.78316 -0.02434,0.78317 h 2.032199 c 1.922522,0 2.036928,-0.009 2.119844,-0.16377 z m 4.803163,5.10506 c -0.03237,-0.0324 -0.05885,-1.67297 -0.05885,-3.64579 0,-2.83794 0.02412,-3.64466 0.115488,-3.86334 0.146116,-0.34971 0.562584,-0.70299 0.967828,-0.82099 0.213294,-0.0621 1.914364,-0.0831 5.315268,-0.0657 l 5.001584,0.0256 0.360229,0.23843 c 0.682985,0.45207 0.681621,0.44306 0.683743,4.51501 0.0017,3.17664 -0.01283,3.57375 -0.132066,3.6195 -0.267136,0.10251 -2.053945,0.0567 -2.125911,-0.0544 -0.03767,-0.0582 -0.08755,-1.53458 -0.11083,-3.28083 l -0.04233,-3.175 -1.3335,-0.0233 -1.3335,-0.0233 v 3.20255 c 0,2.37799 -0.02616,3.22871 -0.1016,3.30415 -0.115241,0.11524 -1.903206,0.14317 -2.077531,0.0324 -0.07962,-0.0506 -0.110133,-0.83841 -0.127,-3.27954 l -0.0222,-3.21297 -1.263419,-0.0235 c -0.819958,-0.0153 -1.295448,0.008 -1.354667,0.0676 -0.06043,0.0604 -0.105543,1.1691 -0.13358,3.28318 l -0.04233,3.19203 -1.062982,0.0236 c -0.584641,0.013 -1.089466,-0.003 -1.121833,-0.0353 z m 15.900815,-0.0731 c -0.423068,-0.14959 -0.848535,-0.60233 -0.967008,-1.02899 -0.115624,-0.4164 -0.117725,-2.51304 -0.0029,-2.92637 0.105607,-0.38025 0.429809,-0.7824 0.789526,-0.97933 0.228897,-0.12532 0.623356,-0.15091 2.889748,-0.18746 l 2.624666,-0.0423 0.02617,-0.46115 c 0.01439,-0.25362 0.0041,-0.5489 -0.02278,-0.65616 l -0.04895,-0.19503 h -2.713287 c -1.708425,0 -2.773937,-0.0325 -2.877053,-0.0876 -0.372936,-0.19959 -0.05397,-1.1131 0.521738,-1.49426 l 0.360134,-0.23843 2.885013,-0.0263 c 3.137782,-0.0286 3.331244,-0.007 3.816837,0.41904 0.509468,0.44732 0.550097,0.73792 0.547984,3.91941 -0.0017,2.53315 -0.01666,2.83239 -0.157285,3.14197 -0.189675,0.41756 -0.586479,0.7648 -1.007651,0.88177 -0.514099,0.14278 -6.245712,0.10942 -6.664871,-0.0388 z m 5.274733,-1.83708 c 0.06249,-0.0625 0.1016,-0.36864 0.1016,-0.79528 0,-0.55444 -0.02688,-0.70399 -0.133925,-0.74507 -0.234513,-0.09 -3.760439,-0.0575 -3.935641,0.0363 -0.140326,0.0751 -0.163767,0.18174 -0.163767,0.74506 0,0.39844 0.04002,0.69745 0.1016,0.75903 0.144129,0.14412 3.886004,0.14412 4.030133,0 z m 6.255595,1.87817 c -0.360478,-0.1082 -0.779663,-0.46224 -0.93508,-0.78976 -0.123759,-0.2608 -0.138915,-0.82265 -0.138915,-5.14984 v -4.85711 l 1.059195,-0.5276 c 0.582557,-0.29018 1.096907,-0.5276 1.143,-0.5276 0.05234,0 0.0838,0.60134 0.0838,1.60175 0,0.88095 0.02313,1.662 0.05139,1.73566 0.04387,0.11431 0.247552,0.13393 1.390952,0.13393 1.641492,0 1.605656,-0.0215 1.605656,0.96278 0,0.42897 -0.03904,0.73572 -0.1016,0.79828 -0.07038,0.0704 -0.509459,0.1016 -1.428967,0.1016 -1.070923,0 -1.347535,0.0243 -1.431763,0.12579 -0.07858,0.0947 -0.09674,0.65836 -0.07343,2.27939 0.01703,1.18447 0.06239,2.18514 0.100802,2.22371 0.03841,0.0386 0.700913,0.0892 1.472237,0.11245 1.57736,0.0476 1.617632,0.0647 1.509772,0.63961 -0.08003,0.42658 -0.641267,0.99924 -1.105666,1.12817 -0.390858,0.1085 -2.846711,0.11525 -3.201392,0.009 z m 6.550325,-0.0752 c -0.11996,-0.22414 -0.1205,-6.70688 -6e-4,-7.1386 0.11697,-0.42117 0.46421,-0.81798 0.88177,-1.00765 0.29452,-0.13378 0.57212,-0.15542 1.99317,-0.15542 1.43175,0 1.69728,0.021 1.9995,0.15825 0.44253,0.20097 0.79623,0.66209 0.85734,1.11774 0.0745,0.55538 -0.009,0.58295 -1.76198,0.58295 -1.14698,0 -1.51945,0.0265 -1.59144,0.11325 -0.0643,0.0774 -0.10101,1.11483 -0.1162,3.28084 l -0.0222,3.16758 -1.07519,0.0237 c -0.99511,0.0219 -1.08181,0.0113 -1.16416,-0.1426 z m 7.33346,0.10483 c -0.031,-0.031 -0.0564,-1.89033 -0.0564,-4.13174 0,-3.05678 0.0254,-4.10068 0.1016,-4.17688 0.1641,-0.1641 1.96702,-0.13756 2.13602,0.0314 0.1172,0.1172 0.13305,0.60946 0.13305,4.13174 0,2.9972 -0.0254,4.02413 -0.1016,4.10028 -0.10894,0.10894 -2.10804,0.14974 -2.21262,0.0452 z m 5.84103,-0.0648 c -0.42045,-0.1528 -0.71624,-0.42943 -0.91145,-0.8524 -0.14221,-0.30813 -0.15648,-0.60044 -0.15817,-3.24122 -0.002,-3.19822 0.008,-3.27105 0.52784,-3.80811 0.14692,-0.1518 0.40217,-0.31351 0.56721,-0.35936 0.39074,-0.10855 5.20808,-0.10968 5.58595,-0.001 0.69051,0.19804 1.33674,1.28331 0.97785,1.6422 -0.12058,0.12058 -0.44152,0.13747 -2.61215,0.13747 -1.81187,0 -2.5019,0.0272 -2.57629,0.1016 -0.0737,0.0737 -0.1016,0.69615 -0.1016,2.26907 0,1.57292 0.0279,2.19534 0.1016,2.26907 0.0745,0.0745 0.78323,0.1016 2.66095,0.1016 2.19069,0 2.57812,0.0188 2.68963,0.13027 0.28148,0.28148 -0.14088,1.18115 -0.71202,1.51666 -0.27873,0.16375 -0.44598,0.1745 -3.00449,0.19309 -2.14674,0.0156 -2.77693,-0.005 -3.03486,-0.0986 z m -49.822543,-9.29367 c -0.12396,-0.12396 -0.140478,-2.33033 -0.01889,-2.52307 0.06296,-0.0998 0.317425,-0.13299 1.188494,-0.15498 1.564182,-0.0395 1.522794,-0.0761 1.522794,1.34783 0,0.60736 -0.03944,1.17798 -0.08765,1.26805 -0.08037,0.15016 -0.187981,0.16377 -1.2954,0.16377 -0.826476,0 -1.239829,-0.0321 -1.309355,-0.1016 z"
         id="path838"
         inkscape:connector-curvature="0" />
      <path
         style="fill:#a6e2e6;stroke-width:0.08466666"
         d="m 56.823434,134.27161 c -0.315528,-0.14084 -0.679962,-0.52309 -0.798947,-0.83801 -0.05759,-0.15243 -0.09005,-1.34577 -0.09005,-3.31064 0,-3.0577 9.18e-4,-3.07366 0.193004,-3.3587 0.106152,-0.15752 0.344277,-0.37208 0.529167,-0.4768 0.332241,-0.18817 0.373979,-0.19041 3.578035,-0.19178 3.063946,-0.001 3.259884,0.008 3.570037,0.16602 0.180489,0.0921 0.417097,0.2921 0.525794,0.4445 0.18589,0.26062 0.199221,0.36469 0.22442,1.75175 0.01473,0.81106 0.0052,1.5606 -0.02114,1.66564 -0.0663,0.26417 -0.438936,0.68934 -0.756567,0.86323 -0.228897,0.12532 -0.623356,0.15091 -2.889748,0.18746 l -2.624666,0.0423 -0.02514,0.62679 c -0.01505,0.37519 0.0121,0.66408 0.06763,0.71967 0.06212,0.0622 1.077323,0.10685 3.073138,0.1352 l 2.980368,0.0423 0.02683,0.27922 c 0.04022,0.41851 -0.319745,0.97536 -0.772035,1.19431 -0.352058,0.17043 -0.488912,0.17733 -3.451363,0.17415 -2.388553,-0.003 -3.142095,-0.0289 -3.338769,-0.11669 z m 5.6134,-4.80759 c 0.136527,-0.13653 0.136527,-1.43828 0,-1.5748 -0.14422,-0.14422 -3.97058,-0.14422 -4.1148,0 -0.107942,0.10794 -0.147243,1.51786 -0.04516,1.61995 0.107677,0.10768 4.049914,0.0649 4.159955,-0.0452 z m 4.798444,4.7371 c -0.02624,-0.10478 -0.03649,-1.73355 -0.02278,-3.6195 0.02783,-3.82703 0.01423,-3.73649 0.632036,-4.20779 l 0.310946,-0.23721 5.17131,-0.0208 5.171309,-0.0208 0.336942,0.1919 c 0.187515,0.10679 0.421795,0.34132 0.528281,0.52884 0.191339,0.33694 0.191339,0.33694 0.171058,3.93527 l -0.02028,3.59833 h -1.058333 -1.058333 l -0.02221,-3.16758 c -0.01543,-2.20099 -0.05142,-3.20278 -0.117934,-3.28292 -0.0749,-0.0902 -0.383199,-0.11028 -1.417122,-0.0921 l -1.3214,0.0233 -0.04233,3.25967 -0.04233,3.25966 h -1.015999 -1.016 l -0.04486,-3.25966 c -0.02467,-1.79282 -0.05325,-3.2692 -0.0635,-3.28084 -0.01025,-0.0116 -0.601573,-0.0212 -1.314043,-0.0212 -0.894645,0 -1.326832,0.0314 -1.397,0.1016 -0.07528,0.0753 -0.1016,0.89592 -0.1016,3.16807 0,1.68656 -0.02313,3.12674 -0.05139,3.2004 -0.04303,0.11214 -0.221828,0.13393 -1.099054,0.13393 -1.015881,0 -1.049109,-0.006 -1.095377,-0.1905 z m 15.834822,0.0313 c -0.751789,-0.34522 -0.889,-0.71931 -0.889,-2.42375 0,-1.50025 0.08351,-1.78568 0.648639,-2.21694 l 0.311536,-0.23774 2.626995,-0.0247 c 1.722254,-0.0162 2.664967,-0.0562 2.737246,-0.1162 0.129372,-0.10737 0.15023,-1.06169 0.02745,-1.2561 -0.06776,-0.1073 -0.517316,-0.13357 -2.898536,-0.16933 l -2.818333,-0.0423 0.0044,-0.38664 c 0.0054,-0.47796 0.258486,-0.86197 0.72504,-1.09998 0.319304,-0.1629 0.468598,-0.16939 3.365085,-0.14625 l 3.030954,0.0242 0.320846,0.24481 c 0.633631,0.48348 0.64868,0.58073 0.62128,4.01436 l -0.02422,3.03559 -0.244171,0.32 c -0.478011,0.62646 -0.542372,0.63652 -4.073828,0.63652 -2.860529,0 -3.162087,-0.0135 -3.471334,-0.15552 z m 5.409138,-1.6929 c 0.115985,-0.12816 0.138939,-0.29562 0.118956,-0.86784 l -0.02476,-0.70902 -2.063815,-0.0227 c -1.451423,-0.016 -2.098339,0.006 -2.180166,0.0739 -0.173767,0.14421 -0.16053,1.37422 0.0167,1.55144 0.113163,0.11317 0.421224,0.13305 2.061211,0.13305 1.778027,0 1.939354,-0.0124 2.071879,-0.1588 z m 6.020862,1.6929 c -0.186267,-0.0855 -0.408965,-0.23457 -0.494883,-0.3312 -0.3756,-0.42241 -0.386488,-0.57544 -0.390401,-5.48661 -0.0035,-4.33832 0.0067,-4.674 0.144451,-4.79746 0.239667,-0.21473 1.992858,-1.00367 2.066567,-0.92996 0.03711,0.0371 0.07785,0.80938 0.09054,1.71614 l 0.02306,1.64866 1.439334,0.0423 1.439333,0.0423 0.02475,0.76051 c 0.0209,0.64219 0.0019,0.77722 -0.122016,0.86784 -0.103841,0.0759 -0.538225,0.10731 -1.48525,0.10731 H 95.8971 v 2.32536 c 0,2.21235 0.008,2.32961 0.163767,2.413 0.09281,0.0497 0.735942,0.0876 1.484324,0.0876 1.462493,0 1.46613,0.001 1.36351,0.54848 -0.07217,0.38468 -0.423282,0.79229 -0.849098,0.98571 -0.505405,0.22957 -3.059507,0.22951 -3.559503,-8e-5 z m 6.78744,0.10279 c -0.031,-0.031 -0.0556,-1.62172 -0.0546,-3.53483 0.002,-3.20067 0.0143,-3.50543 0.15816,-3.81706 0.18083,-0.3918 0.45906,-0.67027 0.79799,-0.79869 0.14068,-0.0533 0.93867,-0.0897 1.94733,-0.0889 1.61454,10e-4 1.72757,0.0119 2.04516,0.19178 0.47169,0.26716 0.7366,0.68668 0.70497,1.1164 l -0.0251,0.34142 -1.56003,0.0231 c -0.97566,0.0145 -1.60203,0.058 -1.67216,0.1162 -0.0893,0.0741 -0.11214,0.71882 -0.11214,3.16611 0,1.69017 -0.0231,3.1333 -0.0514,3.20696 -0.043,0.11202 -0.22073,0.13393 -1.08656,0.13393 -0.56934,0 -1.06056,-0.0254 -1.09161,-0.0564 z m 7.27723,-0.075 c -0.0933,-0.24307 -0.0598,-7.82435 0.0353,-8.0021 0.0791,-0.14788 0.18576,-0.16377 1.09905,-0.16377 0.97872,0 1.01291,0.006 1.05767,0.1905 0.0255,0.10478 0.0357,1.96215 0.0228,4.1275 l -0.0235,3.937 -1.0695,0.0236 c -0.91932,0.0203 -1.07685,0.004 -1.12183,-0.11275 z m 5.79218,-0.003 c -0.38696,-0.16784 -0.57892,-0.3491 -0.77353,-0.7304 -0.14827,-0.29052 -0.16032,-0.53663 -0.16032,-3.27532 0,-1.88637 0.0327,-3.0477 0.09,-3.19954 0.12255,-0.32434 0.48792,-0.70046 0.8174,-0.84143 0.39093,-0.16727 5.40681,-0.16916 5.80642,-0.002 0.37109,0.15505 0.80082,0.66315 0.86922,1.02773 0.10451,0.55712 0.13274,0.55122 -2.63441,0.55122 -2.14279,0 -2.4994,0.0181 -2.6143,0.13304 -0.19792,0.19793 -0.19904,4.30706 -0.001,4.58945 0.13136,0.18755 0.1404,0.18817 2.75005,0.18817 h 2.61825 l 0.0501,0.19964 c 0.0551,0.21955 -0.14048,0.75993 -0.36761,1.01572 -0.0797,0.0898 -0.29734,0.23321 -0.4836,0.31874 -0.30611,0.14056 -0.59513,0.15538 -3.00567,0.15406 -2.18581,-0.001 -2.72001,-0.0245 -2.96082,-0.12889 z m -49.769583,-9.1962 c -0.12396,-0.12396 -0.140478,-2.33033 -0.01889,-2.52307 0.06296,-0.0998 0.317425,-0.13299 1.188494,-0.15498 1.564182,-0.0395 1.522794,-0.0761 1.522794,1.34783 0,0.60736 -0.03944,1.17798 -0.08765,1.26805 -0.08037,0.15016 -0.187981,0.16377 -1.2954,0.16377 -0.826476,0 -1.239829,-0.0321 -1.309355,-0.1016 z"
         id="path836"
         inkscape:connector-curvature="0" />
      <path
         style="fill:#c6c8c6;stroke-width:0.08466666"
         d="m 56.823434,134.27161 c -0.315528,-0.14084 -0.679962,-0.52309 -0.798947,-0.83801 -0.05759,-0.15243 -0.09005,-1.34577 -0.09005,-3.31064 0,-3.0577 9.18e-4,-3.07366 0.193004,-3.3587 0.106152,-0.15752 0.344277,-0.37208 0.529167,-0.4768 0.332241,-0.18817 0.373979,-0.19041 3.578035,-0.19178 3.063946,-0.001 3.259884,0.008 3.570037,0.16602 0.180489,0.0921 0.417097,0.2921 0.525794,0.4445 0.18589,0.26062 0.199221,0.36469 0.22442,1.75175 0.01473,0.81106 0.0052,1.5606 -0.02114,1.66564 -0.0663,0.26417 -0.438936,0.68934 -0.756567,0.86323 -0.228897,0.12532 -0.623356,0.15091 -2.889748,0.18746 l -2.624666,0.0423 -0.02514,0.62679 c -0.01505,0.37519 0.0121,0.66408 0.06763,0.71967 0.06212,0.0622 1.077323,0.10685 3.073138,0.1352 l 2.980368,0.0423 0.02683,0.27922 c 0.04022,0.41851 -0.319745,0.97536 -0.772035,1.19431 -0.352058,0.17043 -0.488912,0.17733 -3.451363,0.17415 -2.388553,-0.003 -3.142095,-0.0289 -3.338769,-0.11669 z m 5.6134,-4.80759 c 0.136527,-0.13653 0.136527,-1.43828 0,-1.5748 -0.14422,-0.14422 -3.97058,-0.14422 -4.1148,0 -0.107942,0.10794 -0.147243,1.51786 -0.04516,1.61995 0.107677,0.10768 4.049914,0.0649 4.159955,-0.0452 z m 4.798444,4.7371 c -0.02624,-0.10478 -0.03649,-1.73355 -0.02278,-3.6195 0.02783,-3.82703 0.01423,-3.73649 0.632036,-4.20779 l 0.310946,-0.23721 5.17131,-0.0208 5.171309,-0.0208 0.336942,0.1919 c 0.187515,0.10679 0.421795,0.34132 0.528281,0.52884 0.191339,0.33694 0.191339,0.33694 0.171058,3.93527 l -0.02028,3.59833 h -1.058333 -1.058333 l -0.02221,-3.16758 c -0.01543,-2.20099 -0.05142,-3.20278 -0.117934,-3.28292 -0.0749,-0.0902 -0.383199,-0.11028 -1.417122,-0.0921 l -1.3214,0.0233 -0.04233,3.25967 -0.04233,3.25966 h -1.015999 -1.016 l -0.04486,-3.25966 c -0.02467,-1.79282 -0.05325,-3.2692 -0.0635,-3.28084 -0.01025,-0.0116 -0.601573,-0.0212 -1.314043,-0.0212 -0.894645,0 -1.326832,0.0314 -1.397,0.1016 -0.07528,0.0753 -0.1016,0.89592 -0.1016,3.16807 0,1.68656 -0.02313,3.12674 -0.05139,3.2004 -0.04303,0.11214 -0.221828,0.13393 -1.099054,0.13393 -1.015881,0 -1.049109,-0.006 -1.095377,-0.1905 z m 15.834822,0.0313 c -0.751789,-0.34522 -0.889,-0.71931 -0.889,-2.42375 0,-1.50025 0.08351,-1.78568 0.648639,-2.21694 l 0.311536,-0.23774 2.626995,-0.0247 c 1.722254,-0.0162 2.664967,-0.0562 2.737246,-0.1162 0.129372,-0.10737 0.15023,-1.06169 0.02745,-1.2561 -0.06776,-0.1073 -0.517316,-0.13357 -2.898536,-0.16933 l -2.818333,-0.0423 0.0044,-0.38664 c 0.0054,-0.47796 0.258486,-0.86197 0.72504,-1.09998 0.319304,-0.1629 0.468598,-0.16939 3.365085,-0.14625 l 3.030954,0.0242 0.320846,0.24481 c 0.633631,0.48348 0.64868,0.58073 0.62128,4.01436 l -0.02422,3.03559 -0.244171,0.32 c -0.478011,0.62646 -0.542372,0.63652 -4.073828,0.63652 -2.860529,0 -3.162087,-0.0135 -3.471334,-0.15552 z m 5.409138,-1.6929 c 0.115985,-0.12816 0.138939,-0.29562 0.118956,-0.86784 l -0.02476,-0.70902 -2.063815,-0.0227 c -1.451423,-0.016 -2.098339,0.006 -2.180166,0.0739 -0.173767,0.14421 -0.16053,1.37422 0.0167,1.55144 0.113163,0.11317 0.421224,0.13305 2.061211,0.13305 1.778027,0 1.939354,-0.0124 2.071879,-0.1588 z m 6.020862,1.6929 c -0.186267,-0.0855 -0.408965,-0.23457 -0.494883,-0.3312 -0.3756,-0.42241 -0.386488,-0.57544 -0.390401,-5.48661 -0.0035,-4.33832 0.0067,-4.674 0.144451,-4.79746 0.239667,-0.21473 1.992858,-1.00367 2.066567,-0.92996 0.03711,0.0371 0.07785,0.80938 0.09054,1.71614 l 0.02306,1.64866 1.439334,0.0423 1.439333,0.0423 0.02475,0.76051 c 0.0209,0.64219 0.0019,0.77722 -0.122016,0.86784 -0.103841,0.0759 -0.538225,0.10731 -1.48525,0.10731 H 95.8971 v 2.32536 c 0,2.21235 0.008,2.32961 0.163767,2.413 0.09281,0.0497 0.735942,0.0876 1.484324,0.0876 1.462493,0 1.46613,0.001 1.36351,0.54848 -0.07217,0.38468 -0.423282,0.79229 -0.849098,0.98571 -0.505405,0.22957 -3.059507,0.22951 -3.559503,-8e-5 z m 6.78744,0.10279 c -0.031,-0.031 -0.0556,-1.62172 -0.0546,-3.53483 0.002,-3.20067 0.0143,-3.50543 0.15816,-3.81706 0.18083,-0.3918 0.45906,-0.67027 0.79799,-0.79869 0.14068,-0.0533 0.93867,-0.0897 1.94733,-0.0889 1.61454,10e-4 1.72757,0.0119 2.04516,0.19178 0.47169,0.26716 0.7366,0.68668 0.70497,1.1164 l -0.0251,0.34142 -1.56003,0.0231 c -0.97566,0.0145 -1.60203,0.058 -1.67216,0.1162 -0.0893,0.0741 -0.11214,0.71882 -0.11214,3.16611 0,1.69017 -0.0231,3.1333 -0.0514,3.20696 -0.043,0.11202 -0.22073,0.13393 -1.08656,0.13393 -0.56934,0 -1.06056,-0.0254 -1.09161,-0.0564 z m 7.27723,-0.075 c -0.0933,-0.24307 -0.0598,-7.82435 0.0353,-8.0021 0.0791,-0.14788 0.18576,-0.16377 1.09905,-0.16377 0.97872,0 1.01291,0.006 1.05767,0.1905 0.0255,0.10478 0.0357,1.96215 0.0228,4.1275 l -0.0235,3.937 -1.0695,0.0236 c -0.91932,0.0203 -1.07685,0.004 -1.12183,-0.11275 z m 5.79218,-0.003 c -0.38696,-0.16784 -0.57892,-0.3491 -0.77353,-0.7304 -0.14827,-0.29052 -0.16032,-0.53663 -0.16032,-3.27532 0,-1.88637 0.0327,-3.0477 0.09,-3.19954 0.12255,-0.32434 0.48792,-0.70046 0.8174,-0.84143 0.39093,-0.16727 5.40681,-0.16916 5.80642,-0.002 0.37109,0.15505 0.80082,0.66315 0.86922,1.02773 0.10451,0.55712 0.13274,0.55122 -2.63441,0.55122 -2.14279,0 -2.4994,0.0181 -2.6143,0.13304 -0.19792,0.19793 -0.19904,4.30706 -0.001,4.58945 0.13136,0.18755 0.1404,0.18817 2.75005,0.18817 h 2.61825 l 0.0501,0.19964 c 0.0551,0.21955 -0.14048,0.75993 -0.36761,1.01572 -0.0797,0.0898 -0.29734,0.23321 -0.4836,0.31874 -0.30611,0.14056 -0.59513,0.15538 -3.00567,0.15406 -2.18581,-0.001 -2.72001,-0.0245 -2.96082,-0.12889 z M 64.703482,124.9449 c -0.172742,-0.17275 -0.194494,-2.03656 -0.02645,-2.26637 0.09334,-0.12765 0.24867,-0.14283 1.248833,-0.12202 l 1.142236,0.0238 0.02365,1.1788 c 0.01778,0.88625 -0.0032,1.19586 -0.08467,1.24753 -0.05957,0.0378 -0.572321,0.0693 -1.139437,0.07 -0.825732,0.001 -1.05762,-0.0252 -1.164166,-0.13175 z"
         id="path834"
         inkscape:connector-curvature="0" />
      <path
         style="fill:#bec0be;stroke-width:0.08466666"
         d="m 56.689803,134.11443 c -0.437325,-0.29471 -0.650583,-0.67499 -0.712755,-1.27098 -0.03019,-0.28939 -0.0426,-1.68822 -0.02758,-3.1085 0.02564,-2.42528 0.03788,-2.60034 0.201215,-2.87838 0.09565,-0.16282 0.30131,-0.3819 0.45702,-0.48683 0.281915,-0.18998 0.297306,-0.19079 3.644735,-0.19079 3.34743,0 3.36282,8e-4 3.644735,0.19079 0.569866,0.38403 0.630932,0.60381 0.630932,2.27075 0,1.44727 -0.0058,1.49639 -0.211667,1.80042 -0.116417,0.1719 -0.366571,0.38819 -0.555898,0.48063 -0.320045,0.15627 -0.522601,0.16808 -2.8829,0.16808 -1.861631,0 -2.565764,0.0271 -2.640268,0.1016 -0.125088,0.12508 -0.135386,1.1164 -0.01395,1.3433 0.08402,0.15698 0.206941,0.16376 2.968899,0.16376 1.883804,0 2.93983,0.0313 3.050455,0.0906 0.344493,0.18436 -0.05368,1.0682 -0.608825,1.35141 -0.307796,0.15702 -0.510508,0.1667 -3.492614,0.1667 -3.152721,0 -3.167037,-7.6e-4 -3.451525,-0.19252 z m 5.745125,-4.59595 c 0.168164,-0.11778 0.188173,-0.20485 0.188173,-0.81883 0,-1.04481 0.106893,-0.9967 -2.214456,-0.9967 -2.362964,0 -2.272877,-0.0418 -2.272877,1.05413 0,0.59207 0.02555,0.73034 0.148166,0.80175 0.08835,0.0515 0.918185,0.0873 2.055495,0.0889 1.592186,0.002 1.938419,-0.0192 2.095499,-0.12923 z m 4.86258,1.1539 c 0.02392,-3.53544 0.02942,-3.64109 0.201711,-3.8735 0.09741,-0.13141 0.304318,-0.32549 0.459785,-0.43129 l 0.282666,-0.19237 5.212882,0.023 5.212882,0.023 0.276444,0.19718 c 0.579765,0.41352 0.570222,0.34172 0.570222,4.29016 v 3.556 l -1.037166,0.0238 -1.037167,0.0238 v -3.13527 c 0,-3.02239 -0.0061,-3.14137 -0.169333,-3.30461 -0.154307,-0.1543 -0.282222,-0.16933 -1.441429,-0.16933 h -1.272096 l -0.08257,0.21718 c -0.04817,0.1267 -0.08257,1.50349 -0.08257,3.30468 v 3.08751 l -0.994833,-0.0239 -0.994833,-0.0238 -0.0222,-3.21298 c -0.01687,-2.44113 -0.04738,-3.22897 -0.127,-3.27954 -0.05764,-0.0366 -0.639246,-0.0671 -1.292459,-0.0678 -0.939456,-0.001 -1.226987,0.0262 -1.375834,0.1305 l -0.188172,0.1318 v 3.1702 3.1702 h -1.06176 -1.06176 z m 15.768395,3.51697 c -0.341369,-0.15066 -0.696158,-0.58236 -0.760505,-0.92537 -0.02848,-0.15178 -0.03952,-0.89096 -0.02454,-1.64262 0.03016,-1.51344 0.06838,-1.63098 0.661378,-2.03458 0.275048,-0.18719 0.32436,-0.1905 2.842791,-0.1905 1.409588,0 2.623154,-0.0231 2.696812,-0.0514 0.10734,-0.0412 0.133925,-0.19186 0.133925,-0.75902 0,-0.61296 -0.02191,-0.71936 -0.163768,-0.79528 -0.103122,-0.0552 -1.169129,-0.0876 -2.878666,-0.0876 h -2.714899 v -0.30054 c 0,-0.40954 0.194657,-0.7537 0.570905,-1.00937 l 0.315069,-0.21409 h 3.03255 c 3.367406,0 3.324839,-0.006 3.760599,0.5647 l 0.23721,0.31088 0.02406,3.14373 0.02406,3.14372 -0.193397,0.2842 c -0.106368,0.15631 -0.300916,0.3639 -0.432328,0.46132 -0.231754,0.1718 -0.338568,0.1777 -3.556,0.19646 -2.628708,0.0153 -3.37065,-0.004 -3.575266,-0.0946 z m 5.45812,-1.60954 c 0.06346,-0.0765 0.08965,-0.39921 0.07387,-0.91017 l -0.02446,-0.79169 -2.063815,-0.0227 c -1.451423,-0.016 -2.098339,0.006 -2.180166,0.0739 -0.151583,0.1258 -0.163902,1.51841 -0.01475,1.66756 0.15873,0.15873 4.07662,0.14303 4.209323,-0.0169 z m 6.103077,1.66605 c -0.296857,-0.11155 -0.607817,-0.39869 -0.764623,-0.70605 -0.162635,-0.31879 -0.167408,-0.48504 -0.14625,-5.09404 l 0.02187,-4.76449 0.931333,-0.48347 c 0.512234,-0.26592 0.978959,-0.48499 1.037167,-0.48684 0.08116,-0.003 0.105833,0.38091 0.105833,1.64467 0,1.54269 0.01047,1.65362 0.163768,1.73566 0.09282,0.0497 0.736104,0.0876 1.484843,0.0876 h 1.321077 l -0.02434,0.78317 -0.02434,0.78316 -1.393351,0.0234 c -0.984729,0.0165 -1.412664,0.0537 -1.459203,0.127 -0.10139,0.15959 -0.08365,4.44672 0.0192,4.63889 0.0809,0.15115 0.190103,0.16386 1.418166,0.16506 0.731787,6.8e-4 1.38368,0.035 1.448653,0.0761 0.193567,0.12256 0.06426,0.74367 -0.217175,1.04314 -0.415864,0.44252 -0.635944,0.48879 -2.29007,0.48144 -0.828055,-0.004 -1.562703,-0.0282 -1.632553,-0.0544 z m 6.70722,-3.57347 c 0.0231,-3.53607 0.0286,-3.64103 0.2009,-3.8735 0.0974,-0.13142 0.30307,-0.32467 0.45702,-0.42944 0.26904,-0.18311 0.35122,-0.1905 2.11753,-0.1905 1.76625,0 1.8488,0.007 2.12531,0.19118 0.31449,0.209 0.68741,0.85229 0.64995,1.12115 -0.0225,0.16139 -0.0969,0.17042 -1.58545,0.19248 -1.30329,0.0193 -1.58711,0.046 -1.7145,0.16129 -0.1419,0.12841 -0.15265,0.36085 -0.15265,3.30002 v 3.16188 h -1.06094 -1.06095 z m 7.28313,-0.40827 0.022,-4.04284 1.03717,-0.0238 1.03717,-0.0238 v 4.0666 4.06661 h -1.05916 -1.05915 z m 5.73703,3.94771 c -0.1164,-0.0464 -0.30099,-0.16782 -0.41021,-0.2698 -0.43407,-0.40527 -0.4365,-0.42604 -0.4365,-3.72469 0,-3.06552 0.001,-3.08354 0.19251,-3.36769 0.10588,-0.15712 0.32107,-0.3723 0.47819,-0.47819 0.28267,-0.19049 0.31473,-0.19251 3.05463,-0.19251 2.7399,0 2.77196,0.002 3.05463,0.19251 0.40022,0.26971 0.68429,0.71848 0.65352,1.03243 l -0.0251,0.25673 -2.56434,0.0423 c -2.15535,0.0356 -2.57714,0.0626 -2.64454,0.16933 -0.12441,0.19703 -0.10688,4.59871 0.0188,4.7244 0.0743,0.0743 0.7624,0.10191 2.56117,0.10276 1.35276,6.8e-4 2.54956,0.0252 2.65956,0.0547 0.17754,0.0475 0.19503,0.0905 0.15579,0.38301 -0.0554,0.41318 -0.41797,0.89737 -0.78756,1.05179 -0.22271,0.0931 -0.86058,0.11688 -3.01567,0.11265 -1.60445,-0.003 -2.82062,-0.0402 -2.94484,-0.0898 z m -49.650998,-9.26659 c -0.172742,-0.17275 -0.194494,-2.03656 -0.02645,-2.26637 0.09334,-0.12765 0.24867,-0.14283 1.248833,-0.12202 l 1.142236,0.0238 0.02365,1.1788 c 0.01778,0.88625 -0.0032,1.19586 -0.08467,1.24753 -0.05957,0.0378 -0.572321,0.0693 -1.139437,0.07 -0.825732,10e-4 -1.05762,-0.0252 -1.164166,-0.13175 z"
         id="path832"
         inkscape:connector-curvature="0" />
      <path
         style="fill:#b3b6b3;stroke-width:0.08466666"
         d="m 56.738768,134.06637 c -0.710549,-0.44342 -0.734932,-0.58473 -0.703566,-4.07742 l 0.02623,-2.921 0.203291,-0.28503 c 0.415886,-0.58312 0.52973,-0.60025 3.987709,-0.60025 3.45798,0 3.571823,0.0171 3.987709,0.60025 0.1967,0.27579 0.203291,0.33493 0.203291,1.82399 0,1.71143 -0.02304,1.79163 -0.634139,2.20754 -0.274868,0.18707 -0.325464,0.1905 -2.812948,0.1905 -1.58418,0 -2.594391,0.0328 -2.696812,0.0876 -0.141821,0.0759 -0.163767,0.18231 -0.163767,0.79397 0,0.48618 0.03527,0.73559 0.113167,0.80024 0.07693,0.0639 1.059416,0.10106 3.06803,0.1162 3.336103,0.0252 3.178608,-0.0126 2.835496,0.68044 -0.356479,0.72007 -0.212686,0.69356 -3.900027,0.71897 -3.060755,0.0211 -3.275166,0.0128 -3.513666,-0.13604 z m 5.799666,-4.49895 c 0.09225,-0.0583 0.135116,-0.27675 0.156664,-0.79839 0.02795,-0.67656 0.01715,-0.73063 -0.186651,-0.93443 l -0.216316,-0.21632 h -1.890009 c -2.379908,0 -2.266354,-0.0547 -2.266354,1.09136 0,0.45526 0.0254,0.85315 0.05644,0.8842 0.08873,0.0887 4.203612,0.0637 4.346222,-0.0264 z m 4.844527,1.06264 c 0.02701,-4.07517 -0.0079,-3.87581 0.745203,-4.26061 l 0.372817,-0.1905 h 4.91712 4.917119 l 0.377774,0.1905 c 0.275975,0.13917 0.429107,0.2923 0.568273,0.56827 0.188267,0.37335 0.1905,0.41825 0.1905,3.83117 v 3.45339 H 78.4981 77.524434 v -3.09418 -3.09418 l -0.207819,-0.20782 c -0.201009,-0.20101 -0.246956,-0.20782 -1.402566,-0.20782 -0.661658,0 -1.26782,0.0391 -1.358514,0.0876 -0.157497,0.0843 -0.163768,0.21071 -0.163768,3.302 v 3.21435 h -0.973666 -0.973667 v -3.21435 c 0,-3.09129 -0.0063,-3.21771 -0.163767,-3.302 -0.09069,-0.0485 -0.696857,-0.0876 -1.358515,-0.0876 -1.15561,0 -1.201556,0.007 -1.402566,0.20782 l -0.207819,0.20782 v 3.09418 3.09418 h -0.976306 -0.976307 z m 15.556071,3.40143 c -0.533966,-0.35983 -0.627468,-0.63952 -0.659695,-1.97328 -0.0307,-1.27068 0.04252,-1.73313 0.33286,-2.10223 0.393489,-0.50024 0.474058,-0.51359 3.378903,-0.5597 l 2.667,-0.0423 0.02426,-0.67809 c 0.03897,-1.0892 0.270083,-1.00775 -3.000756,-1.05758 -3.119976,-0.0475 -2.971809,-0.009 -2.634557,-0.67733 0.140956,-0.27915 0.293375,-0.43193 0.570159,-0.5715 0.369051,-0.1861 0.44243,-0.1905 3.178227,-0.1905 2.737264,0 2.808865,0.004 3.17327,0.1905 0.744899,0.38062 0.718364,0.24451 0.743914,3.81609 0.02163,3.0243 0.01585,3.15856 -0.147393,3.42368 -0.09345,0.15177 -0.294083,0.35165 -0.445851,0.44419 -0.262898,0.16029 -0.432417,0.16825 -3.586587,0.16856 -3.294791,3.3e-4 -3.312001,-6e-4 -3.593755,-0.19048 z m 5.628354,-1.38159 c 0.1673,-0.1673 0.192994,-1.6358 0.03145,-1.79735 -0.07328,-0.0733 -0.658095,-0.1016 -2.097827,-0.1016 -2.481487,0 -2.372572,-0.0466 -2.372572,1.01475 0,0.56998 0.03209,0.78324 0.133047,0.8842 0.199268,0.19927 4.106637,0.19927 4.305905,0 z m 5.896399,1.42408 c -0.159673,-0.0814 -0.369223,-0.25557 -0.465667,-0.38701 -0.171874,-0.23425 -0.175811,-0.33536 -0.198529,-5.09945 l -0.02318,-4.86047 0.931934,-0.46738 c 0.512564,-0.25706 0.951619,-0.46739 0.975678,-0.46739 0.02406,0 0.04374,0.68831 0.04374,1.52957 0,0.89246 0.03651,1.59778 0.08764,1.69333 0.08099,0.15133 0.189495,0.16377 1.428967,0.16377 1.049817,0 1.362814,0.0259 1.440221,0.11917 0.06132,0.0739 0.08939,0.35539 0.07387,0.74083 l -0.02503,0.62167 -1.421449,0.0423 c -1.138443,0.0339 -1.437394,0.0676 -1.501537,0.16933 -0.127135,0.20161 -0.103027,4.39978 0.02674,4.65667 0.106352,0.21053 0.114614,0.21189 1.543918,0.254 l 1.436995,0.0423 -0.01382,0.28747 c -0.0162,0.33698 -0.229568,0.65309 -0.620317,0.91903 -0.26552,0.18071 -0.360835,0.1905 -1.854882,0.19037 -1.332132,-8e-5 -1.619743,-0.023 -1.865294,-0.14817 z m 6.936645,-3.39518 c 0,-3.53534 4.3e-4,-3.54412 0.1905,-3.82338 0.418,-0.61416 0.48001,-0.63136 2.37664,-0.65934 1.64219,-0.0242 1.72313,-0.0176 2.08457,0.16934 0.44963,0.23259 0.66871,0.51089 0.73791,0.93735 l 0.0512,0.31551 h -1.49832 c -1.45577,0 -1.76941,0.0468 -1.93038,0.28784 -0.0342,0.0512 -0.0628,1.49334 -0.0635,3.20466 l -0.001,3.1115 h -0.97367 -0.97367 z m 7.30167,-0.45432 0.022,-4.0032 0.89753,-0.0239 c 0.68777,-0.0183 0.92047,0.004 0.99569,0.0944 0.072,0.0868 0.0923,1.15297 0.0761,4.00324 l -0.022,3.88495 -0.99566,0.0239 -0.99566,0.0239 z m 5.50339,3.82893 c -0.15177,-0.0925 -0.35239,-0.29242 -0.44583,-0.44419 -0.16331,-0.26526 -0.16902,-0.39949 -0.14739,-3.46749 l 0.0225,-3.19155 0.29336,-0.30258 c 0.16145,-0.16654 0.4396,-0.34197 0.61861,-0.39017 0.20113,-0.0542 1.30658,-0.0778 2.89677,-0.0619 2.45531,0.0245 2.58232,0.0337 2.81039,0.20283 0.33676,0.24971 0.61987,0.69494 0.61987,0.97484 v 0.23792 l -2.54692,0.0247 c -2.40798,0.0234 -2.55347,0.0337 -2.667,0.18908 -0.0966,0.13222 -0.11983,0.6039 -0.11879,2.41299 7.6e-4,1.26723 0.0363,2.30409 0.0815,2.37566 0.0675,0.10694 0.49856,0.13368 2.7292,0.16933 l 2.64901,0.0423 0.023,0.254 c 0.0292,0.32191 -0.23505,0.75542 -0.59376,0.97413 -0.26085,0.15904 -0.43109,0.16824 -3.11227,0.16824 -2.68119,0 -2.85143,-0.009 -3.11228,-0.16824 z m -49.502008,-9.10817 c -0.172742,-0.17275 -0.194494,-2.03656 -0.02645,-2.26637 0.09334,-0.12765 0.24867,-0.14283 1.248833,-0.12202 l 1.142236,0.0238 0.02365,1.1788 c 0.01778,0.88625 -0.0032,1.19586 -0.08467,1.24753 -0.05957,0.0378 -0.572321,0.0693 -1.139437,0.07 -0.825732,10e-4 -1.05762,-0.0252 -1.164166,-0.13175 z"
         id="path830"
         inkscape:connector-curvature="0" />
      <path
         style="fill:#0fb1bd;stroke-width:0.08466666"
         d="m 64.703482,124.94524 c -0.172742,-0.17275 -0.194494,-2.03656 -0.02645,-2.26637 0.09334,-0.12765 0.24867,-0.14283 1.248833,-0.12202 l 1.142236,0.0238 0.02365,1.1788 c 0.01778,0.88625 -0.0032,1.19586 -0.08467,1.24753 -0.05957,0.0378 -0.572321,0.0693 -1.139437,0.07 -0.825732,10e-4 -1.05762,-0.0252 -1.164166,-0.13175 z"
         id="path828"
         inkscape:connector-curvature="0" />
    </g>
  </g>
</svg>
