<?xml version="1.0" encoding="UTF-8" standalone="no"?>
<svg
   xmlns:dc="http://purl.org/dc/elements/1.1/"
   xmlns:cc="http://creativecommons.org/ns#"
   xmlns:rdf="http://www.w3.org/1999/02/22-rdf-syntax-ns#"
   xmlns:svg="http://www.w3.org/2000/svg"
   xmlns="http://www.w3.org/2000/svg"
   xmlns:sodipodi="http://sodipodi.sourceforge.net/DTD/sodipodi-0.dtd"
   xmlns:inkscape="http://www.inkscape.org/namespaces/inkscape"
   width="800px" height="400px" viewBox="0 0 800 400"
   fill="none"
   version="1.1"
   id="svg946"
   sodipodi:docname="adler.svg"
   inkscape:export-filename="C:\Users\ematric\Desktop\adler.png"
   inkscape:export-xdpi="324"
   inkscape:export-ydpi="324"
   inkscape:version="1.0.1 (3bc2e813f5, 2020-09-07)">
  <metadata
     id="metadata952">
    <rdf:RDF>
      <cc:Work
         rdf:about="">
        <dc:format>image/svg+xml</dc:format>
        <dc:type
           rdf:resource="http://purl.org/dc/dcmitype/StillImage" />
      </cc:Work>
    </rdf:RDF>
  </metadata>
  <defs
     id="defs950" />
  <sodipodi:namedview
     pagecolor="#ffffff"
     bordercolor="#666666"
     borderopacity="1"
     objecttolerance="10"
     gridtolerance="10"
     guidetolerance="10"
     inkscape:pageopacity="0"
     inkscape:pageshadow="2"
     inkscape:window-width="1920"
     inkscape:window-height="1137"
     id="namedview948"
     showgrid="false"
     inkscape:zoom="2.3341014"
     inkscape:cx="95.161185"
     inkscape:cy="121.35933"
     inkscape:window-x="1072"
     inkscape:window-y="719"
     inkscape:window-maximized="1"
     inkscape:current-layer="svg946" />
  <path
     id="path930"
     style="fill:#e30613;fill-opacity:1"
     d="M 216.95703 -0.013671875 L 49.123047 0.013671875 L 27.927734 49.228516 C 41.276934 49.228516 47.661328 36.94405 48.736328 36.03125 L 43.3125 48.171875 L 201.17188 48.171875 L 210.37891 19.640625 L 216.95703 -0.013671875 z M 61.097656 8.9707031 L 74.457031 8.9707031 L 86.042969 36.048828 L 75.296875 36.048828 L 73.455078 31.527344 L 61.019531 31.558594 L 58.792969 36.048828 L 48.740234 36.048828 C 49.506834 34.301928 61.097656 8.9707031 61.097656 8.9707031 z M 87.804688 11.726562 L 104.38281 11.726562 C 106.23481 11.678562 108.06086 12.173535 109.63086 13.148438 C 111.20086 14.123335 112.44789 15.534231 113.21289 17.207031 C 115.36289 21.770931 114.97872 28.239909 112.13672 32.349609 C 109.75772 35.638309 106.07528 36.074219 102.23828 36.074219 L 87.804688 36.074219 L 87.804688 11.726562 z M 118.04492 11.726562 L 127.94922 11.726562 L 127.94922 29.685547 L 136.69336 29.685547 L 136.69336 36.074219 L 118.04492 36.074219 L 118.04492 11.726562 z M 139.38281 11.726562 L 160.56836 11.726562 L 160.56836 17.740234 L 148.82227 17.740234 L 148.82227 21.085938 L 159.56836 21.085938 L 159.56836 26.488281 L 148.74805 26.488281 L 148.74805 29.912109 L 160.64453 29.912109 L 160.64453 36.074219 L 139.38281 36.074219 L 139.38281 11.726562 z M 165.78516 11.726562 L 185.48633 11.775391 C 195.36833 11.775391 193.16178 24.025297 190.42578 25.654297 C 189.25778 26.456497 187.91777 26.976628 186.50977 27.173828 L 194.20508 36.074219 L 182.69336 36.074219 L 175.78516 27.628906 L 175.78516 36.074219 L 165.78516 36.074219 L 165.78516 11.726562 z M 67.46875 16.125 L 63.630859 25.484375 L 70.994141 25.470703 L 67.46875 16.125 z M 177.82617 17.355469 C 176.57517 17.377269 175.66797 17.417969 175.66797 17.417969 L 175.66797 22.841797 C 175.66797 22.841797 176.57517 22.880444 177.82617 22.902344 C 182.95017 22.998444 183.22656 21.696806 183.22656 20.128906 C 183.22656 18.561006 182.95017 17.263769 177.82617 17.355469 z M 99.216797 17.689453 C 98.580294 17.672931 97.939672 17.702034 97.326172 17.740234 L 97.326172 29.671875 C 99.247072 29.671875 101.16748 29.969566 102.77148 28.759766 L 102.77148 28.771484 C 104.80248 27.142484 105.0217 22.609431 103.8457 20.019531 C 102.9832 18.195081 101.12631 17.739019 99.216797 17.689453 z " />
  <path
     d="M46.4364 0.0130005H31.6245L10.7461 48.6307C25.2848 48.9801 31.6994 34.096 34.3869 27.7808L46.4364 0.0130005Z"
     fill="#E30613"
     id="path932" />
  <path
     d="M20.4951 20.0996L29.1655 0.00964355H15.5079L0 35.7741C0 35.7741 13.5915 36.4161 20.4951 20.0996Z"
     fill="#E30613"
     id="path934" />
</svg>
