<svg width="155" height="41" viewBox="0 0 155 41" fill="none" xmlns="http://www.w3.org/2000/svg">
<mask id="mask0_602_5" style="mask-type:luminance" maskUnits="userSpaceOnUse" x="0" y="0" width="47" height="41">
<path d="M0 0.5H46.2766V40.7549H0V0.5Z" fill="white"/>
</mask>
<g mask="url(#mask0_602_5)">
<path fill-rule="evenodd" clip-rule="evenodd" d="M38.913 15.709C38.023 15.709 37.2985 14.9855 37.2985 14.095C37.2985 13.205 38.023 12.481 38.913 12.481C39.803 12.481 40.5275 13.205 40.5275 14.095C40.5275 14.9855 39.803 15.709 38.913 15.709ZM45.252 13.428C45.115 12.9925 44.94 12.5635 44.7705 12.149L44.6555 11.868C44.2845 10.9485 43.6615 10.113 42.803 9.384C41.823 8.551 40.5895 7.935 39.1365 7.553C38.336 7.3425 37.421 7.157 36.256 6.9695C36.1315 6.95 36.0205 6.8705 35.9605 6.7575C33.912 2.898 29.929 0.5 25.565 0.5C20.068 0.5 15.2345 4.3965 14.0715 9.764C13.799 10.9925 13.748 12.2475 13.9195 13.4935C14.126 14.994 14.6675 16.501 15.486 17.8515C16.317 19.2245 17.4545 20.468 18.7755 21.446C19.942 22.312 21.2565 22.9845 22.6905 23.4475C22.8205 23.4725 22.8685 23.559 22.8585 23.634C22.8505 23.69 22.8035 23.748 22.695 23.7435C21.111 23.601 19.577 23.202 18.135 22.558C16.442 21.8035 14.865 20.694 13.576 19.3475C12.2275 17.9415 11.155 16.2405 10.475 14.428C9.956 13.0505 9.6525 11.5815 9.572 10.064C9.5675 9.969 9.5215 9.8815 9.446 9.8235C9.373 9.7675 9.282 9.7455 9.1895 9.765C3.8645 10.886 0 15.6545 0 21.102C0 21.3685 0.0145 21.6265 0.0305 21.8665C0.543 28.0255 4.5885 39.1435 5.048 40.391C5.13 40.612 5.336 40.755 5.573 40.755H9.6355C9.8565 40.755 10.0575 40.6245 10.15 40.419L11.3115 37.3135C11.3885 37.105 11.6155 37.0005 11.8345 37.0745C17.239 38.9525 23.2025 37.5235 24.9025 37.041C25.108 36.981 25.325 37.095 25.398 37.297L26.527 40.4105C26.6145 40.6195 26.818 40.755 27.0445 40.755H31.068C31.2925 40.755 31.496 40.6205 31.586 40.4125C35.6325 31.028 34.5485 27.173 33.5425 25.71C33.48 25.6185 33.5325 25.541 33.55 25.519C33.5885 25.472 33.664 25.4305 33.753 25.4685C40.4055 28.2515 40.0035 36.9675 39.8555 38.686C39.8415 38.843 39.895 38.999 40.0015 39.115C40.107 39.23 40.2575 39.2965 40.4145 39.2965H42.333C42.584 39.2965 42.7995 39.136 42.87 38.8965C42.9315 38.6885 43.0195 38.408 43.128 38.064C44.3465 34.184 48.056 22.378 45.252 13.428Z" fill="#000B10"/>
</g>
<path fill-rule="evenodd" clip-rule="evenodd" d="M78.3121 16.1348H74.4361C74.2951 16.1348 74.1726 16.2333 74.1426 16.3718C73.9576 17.2303 73.7386 18.1713 73.4906 19.1673C73.2421 20.1683 72.9776 21.1893 72.6976 22.2308C72.4196 23.2663 72.1316 24.2908 71.8426 25.2778C71.6556 25.9153 71.4706 26.5268 71.2891 27.1063C71.0786 26.4403 70.8696 25.7553 70.6646 25.0608C70.3656 24.0478 70.0861 23.0293 69.8326 22.0333C69.5751 21.0228 69.3336 20.0378 69.1076 19.0783C68.8811 18.1188 68.6756 17.2168 68.4896 16.3708C68.4596 16.2328 68.3381 16.1348 68.1971 16.1348H65.3136C65.1726 16.1348 65.0511 16.2323 65.0206 16.3703C64.8381 17.2028 64.6241 18.1128 64.3856 19.0748C64.1476 20.0343 63.8941 21.0203 63.6256 22.0303C63.3556 23.0453 63.0691 24.0648 62.7736 25.0603C62.5651 25.7628 62.3521 26.4578 62.1366 27.1363C61.9431 26.5488 61.7501 25.9268 61.5601 25.2778C61.2726 24.2973 60.9901 23.2733 60.7211 22.2338C60.4511 21.1913 60.1921 20.1693 59.9431 19.1673C59.6976 18.1813 59.4786 17.2408 59.2916 16.3718C59.2616 16.2333 59.1391 16.1348 58.9981 16.1348H55.0286C54.9346 16.1348 54.8466 16.1783 54.7901 16.2523C54.7331 16.3268 54.7146 16.4233 54.7391 16.5138C55.1696 18.0903 55.6191 19.6673 56.0756 21.2008C56.5301 22.7263 56.9906 24.1998 57.4451 25.5803C57.8951 26.9488 58.3561 28.2673 58.8151 29.4978C59.2726 30.7218 59.7136 31.8218 60.1261 32.7678C60.1741 32.8768 60.2816 32.9473 60.4011 32.9473H63.4806C63.6081 32.9473 63.7211 32.8673 63.7636 32.7468C64.2956 31.2313 64.8436 29.5858 65.3921 27.8558C65.8271 26.4843 66.2456 25.0608 66.6401 23.6108C67.0371 25.0608 67.4656 26.4848 67.9176 27.8588C68.4806 29.5708 69.0386 31.2153 69.5756 32.7468C69.6181 32.8673 69.7316 32.9473 69.8591 32.9473H72.9081C73.0256 32.9473 73.1326 32.8788 73.1811 32.7723C73.6181 31.8158 74.0706 30.7143 74.5246 29.4978C74.9826 28.2703 75.4436 26.9528 75.8951 25.5803C76.3491 24.1998 76.8101 22.7263 77.2641 21.2008C77.7186 19.6738 78.1686 18.0973 78.6016 16.5138C78.6261 16.4233 78.6076 16.3268 78.5506 16.2523C78.4936 16.1783 78.4056 16.1348 78.3121 16.1348Z" fill="#000B10"/>
<path fill-rule="evenodd" clip-rule="evenodd" d="M82.4448 9.06641C81.7298 9.06641 81.1093 9.30091 80.6003 9.76441C80.0823 10.2349 79.8203 10.8829 79.8203 11.6909C79.8203 12.4784 80.0823 13.1169 80.5998 13.5864C81.1083 14.0499 81.7293 14.2849 82.4448 14.2849C83.1398 14.2849 83.7498 14.0499 84.2588 13.5864C84.7763 13.1164 85.0383 12.4779 85.0383 11.6909C85.0383 10.8834 84.7763 10.2354 84.2588 9.76391C83.7488 9.30091 83.1388 9.06641 82.4448 9.06641Z" fill="#000B10"/>
<path fill-rule="evenodd" clip-rule="evenodd" d="M84.3362 16.1348H80.5852C80.4197 16.1348 80.2852 16.2693 80.2852 16.4348V32.6473C80.2852 32.8128 80.4197 32.9473 80.5852 32.9473H84.3362C84.5017 32.9473 84.6362 32.8128 84.6362 32.6473V16.4348C84.6362 16.2693 84.5017 16.1348 84.3362 16.1348Z" fill="#000B10"/>
<path fill-rule="evenodd" clip-rule="evenodd" d="M91.6918 22.6444C91.7548 22.3074 91.8463 21.9749 91.9633 21.6519C92.1163 21.2329 92.3328 20.8569 92.6078 20.5349C92.8788 20.2169 93.2178 19.9544 93.6143 19.7564C94.0038 19.5614 94.4693 19.4624 94.9983 19.4624C95.5078 19.4624 95.9488 19.5509 96.3083 19.7264C96.6713 19.9039 96.9813 20.1479 97.2308 20.4529C97.4843 20.7624 97.6803 21.1354 97.8118 21.5609C97.9188 21.9049 97.9843 22.2684 98.0068 22.6444H91.6918ZM94.9678 15.7314C93.9838 15.7314 93.0083 15.9209 92.0668 16.2949C91.1223 16.6704 90.2743 17.2359 89.5458 17.9754C88.8178 18.7144 88.2273 19.6504 87.7908 20.7579C87.3553 21.8624 87.1348 23.1614 87.1348 24.6184C87.1348 25.8629 87.3063 27.0259 87.6448 28.0739C87.9873 29.1329 88.5193 30.0664 89.2268 30.8489C89.9363 31.6339 90.8498 32.2549 91.9418 32.6934C93.0273 33.1294 94.3163 33.3499 95.7738 33.3499C96.3413 33.3499 96.9058 33.3184 97.4513 33.2554C97.9918 33.1934 98.5058 33.1134 98.9793 33.0189C99.4548 32.9239 99.8823 32.8169 100.25 32.7009C100.632 32.5814 100.926 32.4684 101.147 32.3574C101.265 32.2984 101.329 32.1704 101.309 32.0414L100.813 28.9724C100.798 28.8814 100.742 28.8019 100.661 28.7579C100.58 28.7129 100.483 28.7084 100.398 28.7444C99.9838 28.9224 99.4028 29.0934 98.6698 29.2544C97.9403 29.4139 97.1223 29.4954 96.2388 29.4954C94.7703 29.4954 93.6423 29.1604 92.8868 28.4999C92.2028 27.9039 91.7853 27.0649 91.6428 26.0034H102.005C102.159 26.0034 102.288 25.8859 102.304 25.7324C102.324 25.5209 102.34 25.2829 102.351 25.0174C102.361 24.7549 102.367 24.5184 102.367 24.3084C102.367 21.4964 101.71 19.3424 100.414 17.9069C99.1093 16.4634 97.2768 15.7314 94.9678 15.7314Z" fill="#000B10"/>
<path fill-rule="evenodd" clip-rule="evenodd" d="M114.679 19.7155V27.71C114.392 27.8855 114.031 28.0415 113.603 28.176C113.107 28.331 112.569 28.4105 112.002 28.4105C110.983 28.4105 110.178 28.0805 109.54 27.4035C108.905 26.7315 108.583 25.6275 108.583 24.122C108.583 22.7315 108.925 21.601 109.602 20.7605C110.271 19.929 111.218 19.524 112.499 19.524C113.081 19.524 113.568 19.5495 113.947 19.599C114.224 19.6355 114.468 19.6745 114.679 19.7155ZM118.808 16.6715C118.038 16.4635 117.09 16.2635 115.99 16.0765C114.882 15.8885 113.697 15.793 112.468 15.793C111.176 15.793 110.002 15.998 108.979 16.4035C107.952 16.8095 107.067 17.3855 106.348 18.115C105.628 18.846 105.073 19.737 104.699 20.7645C104.327 21.7845 104.139 22.9135 104.139 24.122C104.139 25.4105 104.316 26.5655 104.668 27.555C105.022 28.5525 105.523 29.3965 106.159 30.0635C106.796 30.734 107.574 31.2485 108.469 31.594C109.356 31.9365 110.347 32.11 111.414 32.11C112.225 32.11 112.958 32.012 113.594 31.818C114.005 31.6925 114.368 31.5655 114.679 31.4375V31.593C114.679 32.7225 114.386 33.5785 113.809 34.137C113.23 34.6975 112.215 34.982 110.793 34.982C109.867 34.982 108.996 34.9005 108.203 34.7405C107.408 34.579 106.691 34.3655 106.074 34.106C105.99 34.0715 105.898 34.0755 105.818 34.1175C105.739 34.1585 105.683 34.233 105.664 34.3205L104.982 37.514C104.951 37.6615 105.034 37.8095 105.177 37.8595C105.954 38.132 106.831 38.355 107.781 38.5225C108.736 38.69 109.729 38.775 110.731 38.775C113.503 38.775 115.6 38.1435 116.963 36.8985C118.335 35.646 119.029 33.663 119.029 31.004V16.961C119.029 16.8255 118.939 16.7065 118.808 16.6715Z" fill="#000B10"/>
<path fill-rule="evenodd" clip-rule="evenodd" d="M129.616 29.526C128.467 29.526 127.598 29.0995 126.96 28.223C126.309 27.33 125.979 26.086 125.979 24.5245C125.979 22.9855 126.309 21.757 126.96 20.8735C127.597 20.007 128.466 19.5855 129.616 19.5855C130.765 19.5855 131.634 20.007 132.273 20.8735C132.923 21.7575 133.253 22.986 133.253 24.5245C133.253 26.085 132.923 27.3295 132.272 28.223C131.633 29.0995 130.765 29.526 129.616 29.526ZM135.448 18.153C134.741 17.381 133.877 16.777 132.879 16.358C131.885 15.9415 130.787 15.7305 129.616 15.7305C128.444 15.7305 127.352 15.942 126.368 16.3585C125.382 16.7765 124.519 17.38 123.801 18.151C123.085 18.921 122.522 19.857 122.127 20.9335C121.734 22.0055 121.535 23.2135 121.535 24.5245C121.535 25.836 121.734 27.049 122.127 28.1295C122.521 29.216 123.078 30.1575 123.784 30.9275C124.492 31.6995 125.35 32.3075 126.335 32.7355C127.319 33.1635 128.423 33.3805 129.616 33.3805C130.808 33.3805 131.917 33.1635 132.912 32.7365C133.907 32.3085 134.771 31.7005 135.48 30.9275C136.186 30.156 136.739 29.214 137.122 28.127C137.503 27.046 137.697 25.8335 137.697 24.5245C137.697 23.214 137.498 22.006 137.106 20.9335C136.71 19.857 136.153 18.9215 135.448 18.153Z" fill="#000B10"/>
<mask id="mask1_602_5" style="mask-type:luminance" maskUnits="userSpaceOnUse" x="140" y="15" width="15" height="18">
<path d="M140.256 15.793H154.402V32.947H140.256V15.793Z" fill="white"/>
</mask>
<g mask="url(#mask1_602_5)">
<path fill-rule="evenodd" clip-rule="evenodd" d="M154.069 20.4415C153.843 19.4825 153.447 18.6495 152.894 17.9655C152.337 17.278 151.582 16.737 150.65 16.3575C149.728 15.983 148.575 15.793 147.22 15.793C145.807 15.793 144.497 15.8885 143.329 16.076C142.165 16.263 141.205 16.4635 140.473 16.6725C140.344 16.7095 140.256 16.827 140.256 16.961V32.647C140.256 32.8125 140.39 32.947 140.556 32.947H144.307C144.472 32.947 144.606 32.8125 144.606 32.647V19.8225C144.834 19.7895 145.129 19.7515 145.489 19.708C146.648 19.569 147.736 19.576 148.458 19.8595C148.849 20.014 149.148 20.2515 149.374 20.5855C149.608 20.931 149.78 21.394 149.886 21.96C149.996 22.551 150.052 23.2785 150.052 24.122V32.647C150.052 32.8125 150.186 32.947 150.351 32.947H154.102C154.268 32.947 154.402 32.8125 154.402 32.647V23.5335C154.402 22.419 154.29 21.379 154.069 20.4415Z" fill="#000B10"/>
</g>
</svg>
