<?xml version="1.0" encoding="UTF-8"?>
<svg width="800px" height="400px" viewBox="0 0 800 400"
version="1.1" xmlns="http://www.w3.org/2000/svg" xmlns:xlink="http://www.w3.org/1999/xlink">
    <!-- Generator: Sketch 56 (81588) - https://sketch.com -->
    <title>Group 19</title>
    <desc>Created with Sketch.</desc>
    <defs>
        <polygon id="path-1" points="0.0001 0.2451 46.2766641 0.2451 46.2766641 40.5 0.0001 40.5"></polygon>
        <polygon id="path-3" points="0.2568 0.038 14.403 0.038 14.403 17.192 0.2568 17.192"></polygon>
    </defs>
    <g id="Page-1" stroke="none" stroke-width="1" fill="none" fill-rule="evenodd">
        <g id="Bürgerübersicht-–-Screen-Blue" transform="translate(-624.000000, -19.000000)">
            <g id="Group-19" transform="translate(624.000000, 19.000000)">
                <g id="Group-3" transform="translate(0.000000, 0.254900)">
                    <mask id="mask-2" fill="white">
                        <use xlink:href="#path-1"></use>
                    </mask>
                    <g id="Clip-2"></g>
                    <path d="M38.9131,15.4541 C38.0231,15.4541 37.2986,14.7306 37.2986,13.8401 C37.2986,12.9501 38.0231,12.2261 38.9131,12.2261 C39.8031,12.2261 40.5276,12.9501 40.5276,13.8401 C40.5276,14.7306 39.8031,15.4541 38.9131,15.4541 M45.2521,13.1731 C45.1151,12.7376 44.9401,12.3086 44.7706,11.8941 L44.6556,11.6131 C44.2846,10.6936 43.6616,9.8581 42.8031,9.1291 C41.8231,8.2961 40.5896,7.6801 39.1366,7.2981 C38.3361,7.0876 37.4211,6.9021 36.2561,6.7146 C36.1316,6.6951 36.0206,6.6156 35.9606,6.5026 C33.9121,2.6431 29.9291,0.2451 25.5651,0.2451 C20.0681,0.2451 15.2346,4.1416 14.0716,9.5091 C13.7991,10.7376 13.7481,11.9926 13.9196,13.2386 C14.1261,14.7391 14.6676,16.2461 15.4861,17.5966 C16.3171,18.9696 17.4546,20.2131 18.7756,21.1911 C19.9421,22.0571 21.2566,22.7296 22.6906,23.1926 C22.8206,23.2176 22.8686,23.3041 22.8586,23.3791 C22.8506,23.4351 22.8036,23.4931 22.6951,23.4886 C21.1111,23.3461 19.5771,22.9471 18.1351,22.3031 C16.4421,21.5486 14.8651,20.4391 13.5761,19.0926 C12.2276,17.6866 11.1551,15.9856 10.4751,14.1731 C9.9561,12.7956 9.6526,11.3266 9.5721,9.8091 C9.5676,9.7141 9.5216,9.6266 9.4461,9.5686 C9.3731,9.5126 9.2821,9.4906 9.1896,9.5101 C3.8646,10.6311 0.0001,15.3996 0.0001,20.8471 C0.0001,21.1136 0.0146,21.3716 0.0306,21.6116 C0.5431,27.7706 4.5886,38.8886 5.0481,40.1361 C5.1301,40.3571 5.3361,40.5001 5.5731,40.5001 L9.6356,40.5001 C9.8566,40.5001 10.0576,40.3696 10.1501,40.1641 L11.3116,37.0586 C11.3886,36.8501 11.6156,36.7456 11.8346,36.8196 C17.2391,38.6976 23.2026,37.2686 24.9026,36.7861 C25.1081,36.7261 25.3251,36.8401 25.3981,37.0421 L26.5271,40.1556 C26.6146,40.3646 26.8181,40.5001 27.0446,40.5001 L31.0681,40.5001 C31.2926,40.5001 31.4961,40.3656 31.5861,40.1576 C35.6326,30.7731 34.5486,26.9181 33.5426,25.4551 C33.4801,25.3636 33.5326,25.2861 33.5501,25.2641 C33.5886,25.2171 33.6641,25.1756 33.7531,25.2136 C40.4056,27.9966 40.0036,36.7126 39.8556,38.4311 C39.8416,38.5881 39.8951,38.7441 40.0016,38.8601 C40.1071,38.9751 40.2576,39.0416 40.4146,39.0416 L42.3331,39.0416 C42.5841,39.0416 42.7996,38.8811 42.8701,38.6416 C42.9316,38.4336 43.0196,38.1531 43.1281,37.8091 C44.3466,33.9291 48.0561,22.1231 45.2521,13.1731" id="Fill-1" fill="#FDFEFE" mask="url(#mask-2)"></path>
                </g>
                <path d="M78.313,16.1343 L74.437,16.1343 C74.296,16.1343 74.1735,16.2328 74.1435,16.3713 C73.9585,17.2298 73.7395,18.1708 73.4915,19.1668 C73.243,20.1678 72.9785,21.1888 72.6985,22.2303 C72.4205,23.2658 72.1325,24.2903 71.8435,25.2773 C71.6565,25.9148 71.4715,26.5263 71.29,27.1058 C71.0795,26.4398 70.8705,25.7548 70.6655,25.0603 C70.3665,24.0473 70.087,23.0288 69.8335,22.0328 C69.576,21.0223 69.3345,20.0373 69.1085,19.0778 C68.882,18.1183 68.6765,17.2163 68.4905,16.3703 C68.4605,16.2323 68.339,16.1343 68.198,16.1343 L65.3145,16.1343 C65.1735,16.1343 65.052,16.2318 65.0215,16.3698 C64.839,17.2023 64.625,18.1123 64.3865,19.0743 C64.1485,20.0338 63.895,21.0198 63.6265,22.0298 C63.3565,23.0448 63.07,24.0643 62.7745,25.0598 C62.566,25.7623 62.353,26.4573 62.1375,27.1358 C61.944,26.5483 61.751,25.9263 61.561,25.2773 C61.2735,24.2968 60.991,23.2728 60.722,22.2333 C60.452,21.1908 60.193,20.1688 59.944,19.1668 C59.6985,18.1808 59.4795,17.2403 59.2925,16.3713 C59.2625,16.2328 59.14,16.1343 58.999,16.1343 L55.0295,16.1343 C54.9355,16.1343 54.8475,16.1778 54.791,16.2518 C54.734,16.3263 54.7155,16.4228 54.74,16.5133 C55.1705,18.0898 55.62,19.6668 56.0765,21.2003 C56.531,22.7258 56.9915,24.1993 57.446,25.5798 C57.896,26.9483 58.357,28.2668 58.816,29.4973 C59.2735,30.7213 59.7145,31.8213 60.127,32.7673 C60.175,32.8763 60.2825,32.9468 60.402,32.9468 L63.4815,32.9468 C63.609,32.9468 63.722,32.8668 63.7645,32.7463 C64.2965,31.2308 64.8445,29.5853 65.393,27.8553 C65.828,26.4838 66.2465,25.0603 66.641,23.6103 C67.038,25.0603 67.4665,26.4843 67.9185,27.8583 C68.4815,29.5703 69.0395,31.2148 69.5765,32.7463 C69.619,32.8668 69.7325,32.9468 69.86,32.9468 L72.909,32.9468 C73.0265,32.9468 73.1335,32.8783 73.182,32.7718 C73.619,31.8153 74.0715,30.7138 74.5255,29.4973 C74.9835,28.2698 75.4445,26.9523 75.896,25.5798 C76.35,24.1993 76.811,22.7258 77.265,21.2003 C77.7195,19.6733 78.1695,18.0968 78.6025,16.5133 C78.627,16.4228 78.6085,16.3263 78.5515,16.2518 C78.4945,16.1778 78.4065,16.1343 78.313,16.1343" id="Fill-4" fill="#FDFEFE"></path>
                <path d="M82.44435,9.0664 C81.72935,9.0664 81.10885,9.3009 80.59985,9.7644 C80.08185,10.2349 79.81985,10.8829 79.81985,11.6909 C79.81985,12.4784 80.08185,13.1169 80.59935,13.5864 C81.10785,14.0499 81.72885,14.2849 82.44435,14.2849 C83.13935,14.2849 83.74935,14.0499 84.25835,13.5864 C84.77585,13.1164 85.03785,12.4779 85.03785,11.6909 C85.03785,10.8834 84.77585,10.2354 84.25835,9.7639 C83.74835,9.3009 83.13835,9.0664 82.44435,9.0664" id="Fill-6" fill="#FDFEFE"></path>
                <path d="M84.33545,16.1343 L80.58445,16.1343 C80.41895,16.1343 80.28445,16.2688 80.28445,16.4343 L80.28445,32.6468 C80.28445,32.8123 80.41895,32.9468 80.58445,32.9468 L84.33545,32.9468 C84.50095,32.9468 84.63545,32.8123 84.63545,32.6468 L84.63545,16.4343 C84.63545,16.2688 84.50095,16.1343 84.33545,16.1343" id="Fill-8" fill="#FDFEFE"></path>
                <path d="M91.6924,22.64405 C91.7554,22.30705 91.8469,21.97455 91.9639,21.65155 C92.1169,21.23255 92.3334,20.85655 92.6084,20.53455 C92.8794,20.21655 93.2184,19.95405 93.6149,19.75605 C94.0044,19.56105 94.4699,19.46205 94.9989,19.46205 C95.5084,19.46205 95.9494,19.55055 96.3089,19.72605 C96.6719,19.90355 96.9819,20.14755 97.2314,20.45255 C97.4849,20.76205 97.6809,21.13505 97.8124,21.56055 C97.9194,21.90455 97.9849,22.26805 98.0074,22.64405 L91.6924,22.64405 Z M94.9684,15.73105 C93.9844,15.73105 93.0089,15.92055 92.0674,16.29455 C91.1229,16.67005 90.2749,17.23555 89.5464,17.97505 C88.8184,18.71405 88.2279,19.65005 87.7914,20.75755 C87.3559,21.86205 87.1354,23.16105 87.1354,24.61805 C87.1354,25.86255 87.3069,27.02555 87.6454,28.07355 C87.9879,29.13255 88.5199,30.06605 89.2274,30.84855 C89.9369,31.63355 90.8504,32.25455 91.9424,32.69305 C93.0279,33.12905 94.3169,33.34955 95.7744,33.34955 C96.3419,33.34955 96.9064,33.31805 97.4519,33.25505 C97.9924,33.19305 98.5064,33.11305 98.9799,33.01855 C99.4554,32.92355 99.8829,32.81655 100.2504,32.70055 C100.6329,32.58105 100.9269,32.46805 101.1479,32.35705 C101.2654,32.29805 101.3299,32.17005 101.3094,32.04105 L100.8134,28.97205 C100.7984,28.88105 100.7429,28.80155 100.6614,28.75755 C100.5804,28.71255 100.4834,28.70805 100.3989,28.74405 C99.9844,28.92205 99.4034,29.09305 98.6704,29.25405 C97.9409,29.41355 97.1229,29.49505 96.2394,29.49505 C94.7709,29.49505 93.6429,29.16005 92.8874,28.49955 C92.2034,27.90355 91.7859,27.06455 91.6434,26.00305 L102.0054,26.00305 C102.1599,26.00305 102.2889,25.88555 102.3044,25.73205 C102.3249,25.52055 102.3404,25.28255 102.3514,25.01705 C102.3619,24.75455 102.3674,24.51805 102.3674,24.30805 C102.3674,21.49605 101.7104,19.34205 100.4144,17.90655 C99.1099,16.46305 97.2774,15.73105 94.9684,15.73105 L94.9684,15.73105 Z" id="Fill-10" fill="#FDFEFE"></path>
                <path d="M114.6787,19.71535 L114.6787,27.70985 C114.3922,27.88535 114.0307,28.04135 113.6027,28.17585 C113.1072,28.33085 112.5687,28.41035 112.0022,28.41035 C110.9832,28.41035 110.1782,28.08035 109.5397,27.40335 C108.9047,26.73135 108.5827,25.62735 108.5827,24.12185 C108.5827,22.73135 108.9252,21.60085 109.6017,20.76035 C110.2707,19.92885 111.2182,19.52385 112.4987,19.52385 C113.0807,19.52385 113.5682,19.54935 113.9472,19.59885 C114.2237,19.63535 114.4682,19.67435 114.6787,19.71535 M118.8077,16.67135 C118.0377,16.46335 117.0897,16.26335 115.9897,16.07635 C114.8822,15.88835 113.6972,15.79285 112.4677,15.79285 C111.1757,15.79285 110.0017,15.99785 108.9787,16.40335 C107.9522,16.80935 107.0672,17.38535 106.3482,18.11485 C105.6277,18.84585 105.0732,19.73685 104.6992,20.76435 C104.3272,21.78435 104.1387,22.91335 104.1387,24.12185 C104.1387,25.41035 104.3162,26.56535 104.6677,27.55485 C105.0217,28.55235 105.5227,29.39635 106.1587,30.06335 C106.7962,30.73385 107.5737,31.24835 108.4692,31.59385 C109.3562,31.93635 110.3472,32.10985 111.4137,32.10985 C112.2247,32.10985 112.9582,32.01185 113.5937,31.81785 C114.0052,31.69235 114.3682,31.56535 114.6787,31.43735 L114.6787,31.59285 C114.6787,32.72235 114.3857,33.57835 113.8092,34.13685 C113.2297,34.69735 112.2147,34.98185 110.7932,34.98185 C109.8672,34.98185 108.9957,34.90035 108.2027,34.74035 C107.4082,34.57885 106.6912,34.36535 106.0737,34.10585 C105.9902,34.07135 105.8977,34.07535 105.8182,34.11735 C105.7392,34.15835 105.6827,34.23285 105.6642,34.32035 L104.9822,37.51385 C104.9512,37.66135 105.0342,37.80935 105.1767,37.85935 C105.9542,38.13185 106.8307,38.35485 107.7812,38.52235 C108.7362,38.68985 109.7287,38.77485 110.7312,38.77485 C113.5032,38.77485 115.6002,38.14335 116.9632,36.89835 C118.3347,35.64585 119.0292,33.66285 119.0292,31.00385 L119.0292,16.96085 C119.0292,16.82535 118.9387,16.70635 118.8077,16.67135" id="Fill-12" fill="#FDFEFE"></path>
                <path d="M129.6172,29.5264 C128.4682,29.5264 127.5992,29.0999 126.9612,28.2234 C126.3102,27.3304 125.9802,26.0864 125.9802,24.5249 C125.9802,22.9859 126.3102,21.7574 126.9607,20.8739 C127.5982,20.0074 128.4672,19.5859 129.6172,19.5859 C130.7662,19.5859 131.6352,20.0074 132.2737,20.8739 C132.9242,21.7579 133.2542,22.9864 133.2542,24.5249 C133.2542,26.0854 132.9242,27.3299 132.2732,28.2234 C131.6342,29.0999 130.7657,29.5264 129.6172,29.5264 M135.4492,18.1534 C134.7422,17.3814 133.8777,16.7774 132.8797,16.3584 C131.8857,15.9419 130.7882,15.7309 129.6172,15.7309 C128.4452,15.7309 127.3527,15.9424 126.3692,16.3589 C125.3832,16.7769 124.5197,17.3804 123.8017,18.1514 C123.0857,18.9214 122.5227,19.8574 122.1277,20.9339 C121.7352,22.0059 121.5362,23.2139 121.5362,24.5249 C121.5362,25.8364 121.7347,27.0494 122.1277,28.1299 C122.5217,29.2164 123.0792,30.1579 123.7852,30.9279 C124.4927,31.6999 125.3512,32.3079 126.3357,32.7359 C127.3197,33.1639 128.4237,33.3809 129.6172,33.3809 C130.8092,33.3809 131.9182,33.1639 132.9132,32.7369 C133.9077,32.3089 134.7717,31.7009 135.4807,30.9279 C136.1872,30.1564 136.7397,29.2144 137.1232,28.1274 C137.5042,27.0464 137.6977,25.8339 137.6977,24.5249 C137.6977,23.2144 137.4992,22.0064 137.1067,20.9339 C136.7112,19.8574 136.1537,18.9219 135.4492,18.1534" id="Fill-14" fill="#FDFEFE"></path>
                <g id="Group-18" transform="translate(140.000000, 15.754900)">
                    <mask id="mask-4" fill="white">
                        <use xlink:href="#path-3"></use>
                    </mask>
                    <g id="Clip-17"></g>
                    <path d="M14.0698,4.6865 C13.8438,3.7275 13.4483,2.8945 12.8948,2.2105 C12.3383,1.523 11.5833,0.982 10.6513,0.6025 C9.7293,0.228 8.5758,0.038 7.2213,0.038 C5.8078,0.038 4.4983,0.1335 3.3303,0.321 C2.1663,0.508 1.2058,0.7085 0.4743,0.9175 C0.3453,0.9545 0.2568,1.072 0.2568,1.206 L0.2568,16.892 C0.2568,17.0575 0.3913,17.192 0.5568,17.192 L4.3078,17.192 C4.4733,17.192 4.6073,17.0575 4.6073,16.892 L4.6073,4.0675 C4.8353,4.0345 5.1298,3.9965 5.4903,3.953 C6.6488,3.814 7.7373,3.821 8.4593,4.1045 C8.8498,4.259 9.1493,4.4965 9.3753,4.8305 C9.6088,5.176 9.7813,5.639 9.8873,6.205 C9.9968,6.796 10.0528,7.5235 10.0528,8.367 L10.0528,16.892 C10.0528,17.0575 10.1868,17.192 10.3523,17.192 L14.1033,17.192 C14.2688,17.192 14.4033,17.0575 14.4033,16.892 L14.4033,7.7785 C14.4033,6.664 14.2908,5.624 14.0698,4.6865" id="Fill-16" fill="#FDFEFE" mask="url(#mask-4)"></path>
                </g>
            </g>
        </g>
    </g>
</svg>