<?xml version="1.0" encoding="UTF-8" standalone="no"?>
<svg
   viewBox="0 0 766.25348 244.83801"
   version="1.1"
   id="svg32"
   width="766.25348"
   height="244.83801"
   sodipodi:docname="ADLER.svg"
   inkscape:version="1.3.2 (091e20e, 2023-11-25, custom)"
   xmlns:inkscape="http://www.inkscape.org/namespaces/inkscape"
   xmlns:sodipodi="http://sodipodi.sourceforge.net/DTD/sodipodi-0.dtd"
   xmlns="http://www.w3.org/2000/svg"
   xmlns:svg="http://www.w3.org/2000/svg"
   xmlns:rdf="http://www.w3.org/1999/02/22-rdf-syntax-ns#"
   xmlns:cc="http://creativecommons.org/ns#"
   xmlns:dc="http://purl.org/dc/elements/1.1/">
  <sodipodi:namedview
     id="namedview1"
     pagecolor="#ffffff"
     bordercolor="#000000"
     borderopacity="0.25"
     inkscape:showpageshadow="2"
     inkscape:pageopacity="0.0"
     inkscape:pagecheckerboard="0"
     inkscape:deskcolor="#d1d1d1"
     inkscape:zoom="0.6907312"
     inkscape:cx="162.14701"
     inkscape:cy="47.051588"
     inkscape:window-width="1920"
     inkscape:window-height="991"
     inkscape:window-x="5591"
     inkscape:window-y="164"
     inkscape:window-maximized="1"
     inkscape:current-layer="svg32" />
  <defs
     id="defs1">
    <style
       id="style1">.cls-1{fill:#1d1d1b;}.cls-2{fill:#e30613;}.cls-3{fill:#fff;}</style>
  </defs>
  <title
     id="title1">ADLER Logo_Claim_4c-2</title>
  <rect
     style="fill:#ffe402;fill-opacity:1;stroke-width:1.60622"
     id="rect36"
     width="766.25348"
     height="244.83801"
     x="0"
     y="0" />
  <g
     id="Claim_PFAD"
     data-name="Claim PFAD"
     transform="translate(143.17311,39.645472)">
    <path
       class="cls-1"
       d="M 41.39,177.51 V 155.3 h 4.28 v 22.21 z"
       transform="translate(-17,-24.46)"
       id="path1" />
    <path
       class="cls-1"
       d="m 61,177.51 v -10.46 c 0,-1.68 -0.46,-2.7 -2,-2.7 -2.14,0 -3.82,2.4 -3.82,5.26 v 7.9 H 51 v -13.13 c -0.79,-0.13 -1.91,-0.26 -2.87,-0.33 v -2.63 a 46.31,46.31 0 0 1 6.81,-0.29 18.18,18.18 0 0 1 -0.23,3 v 0 a 6,6 0 0 1 5.56,-3.26 c 3.68,0 4.86,2.34 4.86,5.2 v 11.48 z"
       transform="translate(-17,-24.46)"
       id="path2" />
    <path
       class="cls-1"
       d="m 95.26,177.25 a 46.07,46.07 0 0 1 -6.77,0.29 20,20 0 0 1 0.19,-3 h -0.06 a 5.92,5.92 0 0 1 -5.53,3.26 c -3.72,0 -4.9,-2.34 -4.9,-5.2 v -8.26 c -0.79,-0.13 -1.88,-0.26 -2.83,-0.33 v -2.63 a 49.63,49.63 0 0 1 7,-0.29 v 10.49 c 0,1.68 0.46,2.7 2,2.7 2.14,0 3.81,-2.4 3.81,-5.27 v -7.89 h 4.23 v 13.13 c 0.79,0.13 1.91,0.26 2.86,0.32 z"
       transform="translate(-17,-24.46)"
       id="path3" />
    <path
       class="cls-1"
       d="m 108.49,177.51 v -10.46 c 0,-1.68 -0.46,-2.7 -2,-2.7 -2.14,0 -3.81,2.4 -3.81,5.26 v 7.9 h -4.19 v -13.13 c -0.79,-0.13 -1.91,-0.26 -2.86,-0.33 v -2.63 a 46.19,46.19 0 0 1 6.81,-0.29 19.37,19.37 0 0 1 -0.23,3 v 0 a 6,6 0 0 1 5.56,-3.26 c 3.68,0 4.87,2.34 4.87,5.2 v 11.48 z"
       transform="translate(-17,-24.46)"
       id="path4" />
    <path
       class="cls-1"
       d="m 125.66,164.42 a 10.47,10.47 0 0 0 -3,-0.46 c -1.58,0 -2.37,0.62 -2.37,1.57 0,2.74 6.78,1.52 6.78,7 0,3 -2.37,5.33 -7.11,5.33 a 16.25,16.25 0 0 1 -3.75,-0.43 l 0.23,-3.49 a 11.17,11.17 0 0 0 3.72,0.66 c 1.64,0 2.53,-0.62 2.53,-1.68 0,-2.79 -6.71,-1.44 -6.71,-7 0,-2.83 2.21,-5.13 6.88,-5.13 a 19,19 0 0 1 3,0.29 z"
       transform="translate(-17,-24.46)"
       id="path5" />
    <path
       class="cls-1"
       d="m 143.17,176.85 a 18.77,18.77 0 0 1 -5.86,1 c -5.23,0 -8.13,-2.6 -8.13,-8.36 0,-4.9 2.9,-8.65 7.77,-8.65 4.87,0 6.78,3.06 6.78,6.94 a 24.73,24.73 0 0 1 -0.14,2.47 h -10.13 c 0,2.83 1.32,4.34 4.34,4.34 a 15.55,15.55 0 0 0 4.94,-0.85 z m -3.62,-9.44 c 0.06,-2.3 -1.06,-3.49 -2.83,-3.49 -1.77,0 -3,1.29 -3.23,3.49 z"
       transform="translate(-17,-24.46)"
       id="path6" />
    <path
       class="cls-1"
       d="m 157.08,165 c -3.12,-0.66 -4.64,1.31 -4.64,5.85 v 6.68 h -4.17 v -13.15 c -0.79,-0.13 -1.91,-0.26 -2.87,-0.33 v -2.63 a 46.31,46.31 0 0 1 6.81,-0.29 22.61,22.61 0 0 1 -0.29,3.32 H 152 c 0.79,-2.07 2.37,-3.88 5.3,-3.62 z"
       transform="translate(-17,-24.46)"
       id="path7" />
    <path
       class="cls-1"
       d="m 172.55,176.85 a 18.77,18.77 0 0 1 -5.86,1 c -5.23,0 -8.13,-2.6 -8.13,-8.36 0,-4.9 2.9,-8.65 7.77,-8.65 4.87,0 6.77,3.06 6.77,6.94 0,1.25 -0.13,2.47 -0.13,2.47 h -10.13 c 0,2.83 1.32,4.34 4.34,4.34 a 15.6,15.6 0 0 0 4.94,-0.85 z m -3.62,-9.44 c 0.06,-2.3 -1.06,-3.49 -2.83,-3.49 -1.77,0 -3,1.29 -3.23,3.49 z"
       transform="translate(-17,-24.46)"
       id="path8" />
    <path
       class="cls-1"
       d="m 187.51,177.51 v -10.46 c 0,-1.68 -0.46,-2.7 -2,-2.7 -2.14,0 -3.82,2.4 -3.82,5.26 v 7.9 h -4.18 v -13.13 c -0.79,-0.13 -1.9,-0.26 -2.86,-0.33 v -2.63 a 46.25,46.25 0 0 1 6.81,-0.29 18.18,18.18 0 0 1 -0.23,3 v 0 a 6,6 0 0 1 5.56,-3.26 c 3.69,0 4.87,2.34 4.87,5.2 v 11.48 z"
       transform="translate(-17,-24.46)"
       id="path9" />
    <path
       class="cls-1"
       d="m 217.12,177.51 -1.51,-4.74 h -8.36 l -1.54,4.74 h -4.31 l 7.43,-22.21 h 5.56 l 7.47,22.21 z m -4.77,-15.07 c -0.36,-1.15 -0.65,-2.27 -0.89,-3.32 h -0.06 c -0.23,1 -0.53,2.2 -0.86,3.29 l -2.3,7 h 6.42 z"
       transform="translate(-17,-24.46)"
       id="path10" />
    <path
       class="cls-1"
       d="m 240.84,177.25 a 46.07,46.07 0 0 1 -6.77,0.29 20.44,20.44 0 0 1 0.19,-2.76 h -0.06 a 5.55,5.55 0 0 1 -5.17,3.09 c -4,0 -5.95,-3 -5.95,-7.66 0,-5.53 3.22,-9.35 8.65,-9.35 a 16.32,16.32 0 0 1 2.07,0.13 v -4.27 c -0.79,-0.13 -1.9,-0.27 -2.86,-0.33 v -2.63 a 46.62,46.62 0 0 1 7,-0.3 v 20.83 c 0.79,0.13 1.91,0.26 2.86,0.32 z m -7,-12.8 a 9.92,9.92 0 0 0 -2.2,-0.26 c -2.4,0 -4.11,1.51 -4.11,5.56 0,3.06 0.88,4.63 2.79,4.63 2.21,0 3.52,-2.56 3.52,-5.36 z"
       transform="translate(-17,-24.46)"
       id="path11" />
    <path
       class="cls-1"
       d="m 256,176.85 a 18.72,18.72 0 0 1 -5.86,1 c -5.23,0 -8.12,-2.6 -8.12,-8.36 0,-4.9 2.89,-8.65 7.76,-8.65 4.87,0 6.78,3.06 6.78,6.94 0,1.25 -0.13,2.47 -0.13,2.47 h -10.16 c 0,2.83 1.32,4.34 4.35,4.34 a 15.54,15.54 0 0 0 4.93,-0.85 z m -3.62,-9.44 c 0.06,-2.3 -1.05,-3.49 -2.83,-3.49 -1.78,0 -3,1.29 -3.22,3.49 z"
       transform="translate(-17,-24.46)"
       id="path12" />
    <path
       class="cls-1"
       d="m 269.8,165 c -3.13,-0.66 -4.64,1.31 -4.64,5.85 v 6.68 H 261 v -13.15 c -0.79,-0.13 -1.91,-0.26 -2.86,-0.33 v -2.63 a 46.19,46.19 0 0 1 6.81,-0.29 21.44,21.44 0 0 1 -0.3,3.32 h 0.07 c 0.79,-2.07 2.36,-3.88 5.29,-3.62 z"
       transform="translate(-17,-24.46)"
       id="path13" />
    <path
       class="cls-1"
       d="m 284.57,177.51 v -10.46 c 0,-1.68 -0.46,-2.7 -2,-2.7 -2.14,0 -3.82,2.4 -3.82,5.26 v 7.9 h -4.17 v -13.13 c -0.79,-0.13 -1.91,-0.26 -2.87,-0.33 v -2.63 a 46.39,46.39 0 0 1 6.82,-0.29 18.23,18.23 0 0 1 -0.24,3 v 0 a 6,6 0 0 1 5.56,-3.26 c 3.68,0 4.87,2.34 4.87,5.2 v 11.48 z"
       transform="translate(-17,-24.46)"
       id="path14" />
    <path
       class="cls-1"
       d="m 309.6,164.42 h -3.81 v 13.09 h -4.18 v -13.09 h -2.86 v -3.26 h 2.86 v -1 c 0,-4.83 2.37,-7 6.68,-7 a 15.84,15.84 0 0 1 2.5,0.23 l -0.3,3.49 a 8.77,8.77 0 0 0 -2.1,-0.3 c -1.78,0 -2.6,1 -2.6,3.26 v 1.25 h 3.81 z"
       transform="translate(-17,-24.46)"
       id="path15" />
    <path
       class="cls-1"
       d="m 314.44,177.51 v -20.79 c -0.79,-0.13 -1.91,-0.27 -2.86,-0.33 v -2.63 a 47.21,47.21 0 0 1 7.07,-0.3 v 24 z"
       transform="translate(-17,-24.46)"
       id="path16" />
    <path
       class="cls-1"
       d="m 324.9,177.51 v -13.13 c -0.79,-0.13 -1.9,-0.26 -2.86,-0.33 v -2.63 a 48,48 0 0 1 7,-0.29 v 16.38 z m 2.1,-18.79 a 2.56,2.56 0 0 1 -2.6,-2.53 2.62,2.62 0 1 1 2.6,2.53 z"
       transform="translate(-17,-24.46)"
       id="path17" />
    <path
       class="cls-1"
       d="m 346.32,176.85 a 18.72,18.72 0 0 1 -5.86,1 c -5.23,0 -8.12,-2.6 -8.12,-8.36 0,-4.9 2.89,-8.65 7.76,-8.65 4.87,0 6.78,3.06 6.78,6.94 0,1.25 -0.13,2.47 -0.13,2.47 h -10.13 c 0,2.83 1.31,4.34 4.34,4.34 a 15.5,15.5 0 0 0 4.93,-0.85 z m -3.62,-9.44 c 0.07,-2.3 -1.05,-3.49 -2.83,-3.49 -1.78,0 -3,1.29 -3.22,3.49 z"
       transform="translate(-17,-24.46)"
       id="path18" />
    <path
       class="cls-1"
       d="m 356.52,174 a 7.71,7.71 0 0 0 3,0.65 c 2,0 2.73,-0.88 2.73,-1.84 0,-2.86 -5.85,-2.47 -5.85,-7.56 0,-3.85 3.72,-4 3.72,-6.78 0,-1.25 -1,-1.91 -2.47,-1.91 -2.21,0 -3.52,1.41 -3.52,4.54 v 16.45 h -4.21 v -16.29 c 0,-5.83 3.58,-8 7.89,-8 4.05,0 6.68,1.85 6.68,4.91 0,4.21 -3.82,4 -3.82,6.54 0,2.8 5.93,2.63 5.93,7.63 0,3.33 -2.77,5.53 -6.81,5.53 a 10.91,10.91 0 0 1 -3.49,-0.46 z"
       transform="translate(-17,-24.46)"
       id="path19" />
    <path
       class="cls-1"
       d="m 378.5,177.38 a 16.15,16.15 0 0 1 -3.49,0.46 c -3.65,0 -4.8,-1.32 -4.8,-5.23 v -8.19 h -2.8 v -3.26 h 2.8 v -5 l 4.21,-1.12 v 6.15 h 3.91 v 3.26 h -3.91 v 7.4 c 0,1.91 0.42,2.5 1.84,2.5 a 8.82,8.82 0 0 0 1.94,-0.23 z"
       transform="translate(-17,-24.46)"
       id="path20" />
    <path
       class="cls-1"
       d="m 393.5,159 v 5.79 h 7.34 v 3.49 h -7.34 v 9.28 h -4.28 V 155.3 h 12.17 v 3.7 z"
       transform="translate(-17,-24.46)"
       id="path21" />
    <path
       class="cls-1"
       d="m 419.16,177.25 a 45.66,45.66 0 0 1 -6.74,0.29 19.22,19.22 0 0 1 0.16,-2.79 v 0 a 5.54,5.54 0 0 1 -5.23,3.13 4.4,4.4 0 0 1 -4.67,-4.67 c 0,-3.89 3.71,-5.69 9.44,-5.69 v -0.7 c 0,-1.87 -0.76,-2.76 -2.93,-2.76 a 14.62,14.62 0 0 0 -5,1.09 l -0.66,-3.19 a 20.07,20.07 0 0 1 6.12,-1.12 c 5.1,0 6.65,2.1 6.65,5.75 v 7.74 c 0.79,0.13 1.91,0.26 2.86,0.32 z m -7.07,-7 c -4.25,0 -5.4,1 -5.4,2.47 a 1.87,1.87 0 0 0 2,1.9 c 2,0 3.42,-2 3.42,-3.88 z"
       transform="translate(-17,-24.46)"
       id="path22" />
    <path
       class="cls-1"
       d="m 430.94,165 c -3.13,-0.66 -4.64,1.31 -4.64,5.85 v 6.68 h -4.18 v -13.15 c -0.79,-0.13 -1.91,-0.26 -2.86,-0.33 v -2.63 a 46.25,46.25 0 0 1 6.81,-0.29 21.44,21.44 0 0 1 -0.3,3.32 h 0.07 c 0.79,-2.07 2.37,-3.88 5.3,-3.62 z"
       transform="translate(-17,-24.46)"
       id="path23" />
    <path
       class="cls-1"
       d="m 438.14,160.53 a 19.11,19.11 0 0 1 -0.26,3.2 v 0 a 5.25,5.25 0 0 1 4.94,-2.9 c 3.91,0 6,2.83 6,7.67 0,5.52 -3.23,9.34 -8.85,9.34 a 21.77,21.77 0 0 1 -6.09,-0.79 v -20.33 c -0.79,-0.13 -1.91,-0.27 -2.86,-0.33 v -2.63 a 47.27,47.27 0 0 1 7.07,-0.3 z m 0,13.66 a 7.08,7.08 0 0 0 2.17,0.29 c 2.41,0 4.12,-1.51 4.12,-5.56 0,-3.06 -0.89,-4.6 -2.8,-4.6 -2.17,0 -3.49,2.53 -3.49,5.26 z"
       transform="translate(-17,-24.46)"
       id="path24" />
    <path
       class="cls-1"
       d="m 465.08,176.85 a 18.72,18.72 0 0 1 -5.86,1 c -5.23,0 -8.12,-2.6 -8.12,-8.36 0,-4.9 2.89,-8.65 7.76,-8.65 4.87,0 6.78,3.06 6.78,6.94 0,1.25 -0.13,2.47 -0.13,2.47 h -10.14 c 0,2.83 1.32,4.34 4.35,4.34 a 15.54,15.54 0 0 0 4.93,-0.85 z m -3.62,-9.44 c 0.06,-2.3 -1,-3.49 -2.83,-3.49 -1.83,0 -3,1.29 -3.22,3.49 z"
       transform="translate(-17,-24.46)"
       id="path25" />
    <path
       class="cls-1"
       d="m 470.93,177.87 a 2.68,2.68 0 1 1 2.7,-2.7 2.71,2.71 0 0 1 -2.7,2.7 z"
       transform="translate(-17,-24.46)"
       id="path26" />
  </g>
  <g
     id="LOGO"
     transform="translate(138.18854,51.750851)">
    <path
       class="cls-2"
       d="M 128.5,24.49 80.39,137.18 c 30.3,0 44.79,-28.13 47.23,-30.22 l -12.31,27.8 h 358.31 l 20.9,-65.33 14.93,-45 z"
       transform="translate(-17,-24.46)"
       id="path27" />
    <path
       class="cls-2"
       d="M 122.4,24.49 H 88.78 L 41.39,135.81 c 33,0.8 47.56,-33.28 53.66,-47.74 z"
       transform="translate(-17,-24.46)"
       id="path28" />
    <path
       class="cls-2"
       d="m 63.52,70.48 19.68,-46 h -31 L 17,106.37 c 0,0 30.85,1.47 46.52,-35.89 z"
       transform="translate(-17,-24.46)"
       id="path29" />
    <polygon
       class="cls-3"
       points="267.94,82.6 310.27,82.6 310.27,67.97 290.42,67.97 290.42,26.85 267.94,26.85 "
       id="polygon29" />
    <polygon
       class="cls-3"
       points="316.37,82.6 364.63,82.6 364.63,68.49 337.63,68.49 337.63,60.65 362.19,60.65 362.19,48.28 337.8,48.28 337.8,40.62 364.46,40.62 364.46,26.85 316.37,26.85 "
       id="polygon30" />
    <path
       class="cls-3"
       d="m 155.68,45 c 0,0 -26.31,58 -28.05,62 h 22.82 l 5.05,-10.28 28.23,-0.07 4.18,10.35 H 212.3 L 186,45 Z m 5.75,37.81 8.71,-21.43 8,21.4 z"
       transform="translate(-17,-24.46)"
       id="path30" />
    <path
       class="cls-3"
       d="M 253.93,51.31 H 216.3 v 55.75 h 32.76 c 8.71,0 17.07,-1 22.47,-8.53 6.45,-9.41 7.32,-24.22 2.44,-34.67 A 21.39,21.39 0 0 0 253.93,51.31 Z m -3.66,39 c -3.64,2.77 -8,2.09 -12.36,2.09 V 65.08 c 5.57,-0.35 12.19,-0.35 14.8,5.22 2.67,5.93 2.17,16.31 -2.44,20.04 z"
       transform="translate(-17,-24.46)"
       id="path31" />
    <path
       class="cls-3"
       d="m 440.34,86.68 a 20.7,20.7 0 0 0 8.89,-3.48 c 6.21,-3.73 11.22,-31.78 -11.21,-31.78 L 393.3,51.31 v 55.75 H 416 V 87.72 l 15.68,19.34 h 26.13 z M 420.63,76.9 c -2.84,-0.05 -4.9,-0.14 -4.9,-0.14 V 64.34 c 0,0 2.06,-0.09 4.9,-0.14 11.63,-0.21 12.26,2.76 12.26,6.35 0,3.59 -0.63,6.57 -12.26,6.35 z"
       transform="translate(-17,-24.46)"
       id="path32" />
  </g>
  <metadata
     id="metadata37">
    <rdf:RDF>
      <cc:Work
         rdf:about="">
        <dc:title>ADLER Logo_Claim_4c-2</dc:title>
      </cc:Work>
    </rdf:RDF>
  </metadata>
</svg>
